%TF.GenerationSoftware,KiCad,Pcbnew,9.0.5*%
%TF.CreationDate,2025-10-16T11:43:33+03:30*%
%TF.ProjectId,ECG,4543472e-6b69-4636-9164-5f7063625858,rev?*%
%TF.SameCoordinates,Original*%
%TF.FileFunction,Soldermask,Top*%
%TF.FilePolarity,Negative*%
%FSLAX46Y46*%
G04 Gerber Fmt 4.6, Leading zero omitted, Abs format (unit mm)*
G04 Created by KiCad (PCBNEW 9.0.5) date 2025-10-16 11:43:33*
%MOMM*%
%LPD*%
G01*
G04 APERTURE LIST*
%ADD10C,1.400000*%
%ADD11O,1.400000X1.400000*%
%ADD12R,1.350000X1.350000*%
%ADD13O,1.350000X1.350000*%
%ADD14C,2.900000*%
%ADD15C,5.000000*%
%ADD16R,2.400000X1.600000*%
%ADD17O,2.400000X1.600000*%
G04 APERTURE END LIST*
D10*
%TO.C,C10*%
X90525000Y-87125000D03*
X88025000Y-87125000D03*
%TD*%
%TO.C,R22*%
X117590000Y-88725000D03*
D11*
X125210000Y-88725000D03*
%TD*%
D10*
%TO.C,R7*%
X90930000Y-79300000D03*
D11*
X83310000Y-79300000D03*
%TD*%
D10*
%TO.C,C11*%
X103425000Y-74225000D03*
X100925000Y-74225000D03*
%TD*%
D12*
%TO.C,Supply1*%
X82500000Y-100325000D03*
D13*
X82500000Y-102325000D03*
X82500000Y-104325000D03*
%TD*%
D10*
%TO.C,R6*%
X95900000Y-94975000D03*
D11*
X103520000Y-94975000D03*
%TD*%
D10*
%TO.C,R8*%
X83310000Y-81900000D03*
D11*
X90930000Y-81900000D03*
%TD*%
D10*
%TO.C,R17*%
X117590000Y-94225000D03*
D11*
X125210000Y-94225000D03*
%TD*%
D10*
%TO.C,R13*%
X117590000Y-101725000D03*
D11*
X125210000Y-101725000D03*
%TD*%
D14*
%TO.C,REF\u002A\u002A*%
X140125000Y-70475000D03*
D15*
X140125000Y-70475000D03*
%TD*%
D14*
%TO.C,REF\u002A\u002A*%
X80700000Y-70525000D03*
D15*
X80700000Y-70525000D03*
%TD*%
D10*
%TO.C,C6*%
X118150000Y-80225000D03*
X120650000Y-80225000D03*
%TD*%
%TO.C,C4*%
X117200000Y-109725000D03*
X119700000Y-109725000D03*
%TD*%
%TO.C,R15*%
X117590000Y-106725000D03*
D11*
X125210000Y-106725000D03*
%TD*%
D12*
%TO.C,Input1*%
X82500000Y-89925000D03*
D13*
X82500000Y-91925000D03*
X82500000Y-93925000D03*
%TD*%
D10*
%TO.C,R18*%
X117590000Y-91225000D03*
D11*
X125210000Y-91225000D03*
%TD*%
D10*
%TO.C,C13*%
X108150000Y-85250000D03*
X105650000Y-85250000D03*
%TD*%
%TO.C,C1*%
X90400000Y-95475000D03*
X92900000Y-95475000D03*
%TD*%
%TO.C,C2*%
X95475000Y-74175000D03*
X97975000Y-74175000D03*
%TD*%
%TO.C,R9*%
X105755000Y-70800000D03*
D11*
X113375000Y-70800000D03*
%TD*%
D16*
%TO.C,U2*%
X94280000Y-77605000D03*
D17*
X94280000Y-80145000D03*
X94280000Y-82685000D03*
X94280000Y-85225000D03*
X101900000Y-85225000D03*
X101900000Y-82685000D03*
X101900000Y-80145000D03*
X101900000Y-77605000D03*
%TD*%
D16*
%TO.C,U1*%
X106780000Y-89105000D03*
D17*
X106780000Y-91645000D03*
X106780000Y-94185000D03*
X106780000Y-96725000D03*
X106780000Y-99265000D03*
X106780000Y-101805000D03*
X106780000Y-104345000D03*
X114400000Y-104345000D03*
X114400000Y-101805000D03*
X114400000Y-99265000D03*
X114400000Y-96725000D03*
X114400000Y-94185000D03*
X114400000Y-91645000D03*
X114400000Y-89105000D03*
%TD*%
D10*
%TO.C,C12*%
X116675000Y-70975000D03*
X119175000Y-70975000D03*
%TD*%
%TO.C,C14*%
X120450000Y-96725000D03*
X117950000Y-96725000D03*
%TD*%
%TO.C,R4*%
X95900000Y-89975000D03*
D11*
X103520000Y-89975000D03*
%TD*%
D14*
%TO.C,REF\u002A\u002A*%
X80700000Y-112325000D03*
D15*
X80700000Y-112325000D03*
%TD*%
D14*
%TO.C,REF\u002A\u002A*%
X140125000Y-112275000D03*
D15*
X140125000Y-112275000D03*
%TD*%
D10*
%TO.C,R14*%
X117590000Y-99225000D03*
D11*
X125210000Y-99225000D03*
%TD*%
D10*
%TO.C,R2*%
X85900000Y-89975000D03*
D11*
X93520000Y-89975000D03*
%TD*%
D10*
%TO.C,C7*%
X126650000Y-80225000D03*
X124150000Y-80225000D03*
%TD*%
%TO.C,R20*%
X117900000Y-77225000D03*
D11*
X125520000Y-77225000D03*
%TD*%
D10*
%TO.C,R5*%
X95900000Y-92475000D03*
D11*
X103520000Y-92475000D03*
%TD*%
D16*
%TO.C,U3*%
X106375000Y-74680000D03*
D17*
X106375000Y-77220000D03*
X106375000Y-79760000D03*
X106375000Y-82300000D03*
X113995000Y-82300000D03*
X113995000Y-79760000D03*
X113995000Y-77220000D03*
X113995000Y-74680000D03*
%TD*%
D10*
%TO.C,C8*%
X128400000Y-95725000D03*
X128400000Y-93225000D03*
%TD*%
%TO.C,R12*%
X103470000Y-102375000D03*
D11*
X95850000Y-102375000D03*
%TD*%
D10*
%TO.C,R11*%
X95850000Y-105375000D03*
D11*
X103470000Y-105375000D03*
%TD*%
D10*
%TO.C,C17*%
X88450000Y-103900000D03*
X85950000Y-103900000D03*
%TD*%
%TO.C,R21*%
X117590000Y-85725000D03*
D11*
X125210000Y-85725000D03*
%TD*%
D10*
%TO.C,R1*%
X90910000Y-84300000D03*
D11*
X83290000Y-84300000D03*
%TD*%
D12*
%TO.C,J2*%
X131600000Y-93025000D03*
D13*
X131600000Y-95025000D03*
X131600000Y-97025000D03*
X131600000Y-99025000D03*
X131600000Y-101025000D03*
X131600000Y-103025000D03*
X131600000Y-105025000D03*
%TD*%
D10*
%TO.C,R19*%
X125505000Y-74975000D03*
D11*
X117885000Y-74975000D03*
%TD*%
D10*
%TO.C,C9*%
X128400000Y-89725000D03*
X128400000Y-87225000D03*
%TD*%
%TO.C,C16*%
X85975000Y-101175000D03*
X88475000Y-101175000D03*
%TD*%
%TO.C,C3*%
X89975000Y-74175000D03*
X92475000Y-74175000D03*
%TD*%
%TO.C,R10*%
X95840000Y-99925000D03*
D11*
X103460000Y-99925000D03*
%TD*%
D10*
%TO.C,R16*%
X117590000Y-104225000D03*
D11*
X125210000Y-104225000D03*
%TD*%
D10*
%TO.C,R3*%
X93520000Y-92475000D03*
D11*
X85900000Y-92475000D03*
%TD*%
D10*
%TO.C,C15*%
X103100000Y-97425000D03*
X100600000Y-97425000D03*
%TD*%
%TO.C,C5*%
X122700000Y-109725000D03*
X125200000Y-109725000D03*
%TD*%
M02*
