%TF.GenerationSoftware,KiCad,Pcbnew,9.0.5*%
%TF.CreationDate,2025-10-16T11:43:33+03:30*%
%TF.ProjectId,ECG,4543472e-6b69-4636-9164-5f7063625858,rev?*%
%TF.SameCoordinates,Original*%
%TF.FileFunction,Copper,L1,Top*%
%TF.FilePolarity,Positive*%
%FSLAX46Y46*%
G04 Gerber Fmt 4.6, Leading zero omitted, Abs format (unit mm)*
G04 Created by KiCad (PCBNEW 9.0.5) date 2025-10-16 11:43:33*
%MOMM*%
%LPD*%
G01*
G04 APERTURE LIST*
%TA.AperFunction,ComponentPad*%
%ADD10C,1.400000*%
%TD*%
%TA.AperFunction,ComponentPad*%
%ADD11O,1.400000X1.400000*%
%TD*%
%TA.AperFunction,ComponentPad*%
%ADD12R,1.350000X1.350000*%
%TD*%
%TA.AperFunction,ComponentPad*%
%ADD13O,1.350000X1.350000*%
%TD*%
%TA.AperFunction,ComponentPad*%
%ADD14C,2.900000*%
%TD*%
%TA.AperFunction,ConnectorPad*%
%ADD15C,5.000000*%
%TD*%
%TA.AperFunction,ComponentPad*%
%ADD16R,2.400000X1.600000*%
%TD*%
%TA.AperFunction,ComponentPad*%
%ADD17O,2.400000X1.600000*%
%TD*%
%TA.AperFunction,ViaPad*%
%ADD18C,0.800000*%
%TD*%
%TA.AperFunction,Conductor*%
%ADD19C,0.350000*%
%TD*%
%TA.AperFunction,Conductor*%
%ADD20C,0.500000*%
%TD*%
G04 APERTURE END LIST*
D10*
%TO.P,C10,1*%
%TO.N,Net-(Supply1-Pin_3)*%
X90525000Y-87125000D03*
%TO.P,C10,2*%
%TO.N,GND*%
X88025000Y-87125000D03*
%TD*%
%TO.P,R22,1*%
%TO.N,Net-(U3-+)*%
X117590000Y-88725000D03*
D11*
%TO.P,R22,2*%
%TO.N,GND*%
X125210000Y-88725000D03*
%TD*%
D10*
%TO.P,R7,1*%
%TO.N,Net-(U2--)*%
X90930000Y-79300000D03*
D11*
%TO.P,R7,2*%
%TO.N,Net-(Input1-Pin_1)*%
X83310000Y-79300000D03*
%TD*%
D10*
%TO.P,C11,1*%
%TO.N,Net-(Supply1-Pin_1)*%
X103425000Y-74225000D03*
%TO.P,C11,2*%
%TO.N,GND*%
X100925000Y-74225000D03*
%TD*%
D12*
%TO.P,Supply1,1,Pin_1*%
%TO.N,Net-(Supply1-Pin_1)*%
X82500000Y-100325000D03*
D13*
%TO.P,Supply1,2,Pin_2*%
%TO.N,GND*%
X82500000Y-102325000D03*
%TO.P,Supply1,3,Pin_3*%
%TO.N,Net-(Supply1-Pin_3)*%
X82500000Y-104325000D03*
%TD*%
D10*
%TO.P,R6,1*%
%TO.N,Net-(R5-Pad1)*%
X95900000Y-94975000D03*
D11*
%TO.P,R6,2*%
%TO.N,Net-(R4-Pad2)*%
X103520000Y-94975000D03*
%TD*%
D10*
%TO.P,R8,1*%
%TO.N,Net-(Input1-Pin_3)*%
X83310000Y-81900000D03*
D11*
%TO.P,R8,2*%
%TO.N,Net-(U2-+)*%
X90930000Y-81900000D03*
%TD*%
D10*
%TO.P,R17,1*%
%TO.N,Net-(C8-Pad1)*%
X117590000Y-94225000D03*
D11*
%TO.P,R17,2*%
%TO.N,Net-(J2-Pin_6)*%
X125210000Y-94225000D03*
%TD*%
D10*
%TO.P,R13,1*%
%TO.N,Net-(C4-Pad2)*%
X117590000Y-101725000D03*
D11*
%TO.P,R13,2*%
%TO.N,Net-(J2-Pin_4)*%
X125210000Y-101725000D03*
%TD*%
D14*
%TO.P,REF\u002A\u002A,1*%
%TO.N,N/C*%
X140125000Y-70475000D03*
D15*
X140125000Y-70475000D03*
%TD*%
D14*
%TO.P,REF\u002A\u002A,1*%
%TO.N,N/C*%
X80700000Y-70525000D03*
D15*
X80700000Y-70525000D03*
%TD*%
D10*
%TO.P,C6,1*%
%TO.N,Net-(U1D-+)*%
X118150000Y-80225000D03*
%TO.P,C6,2*%
%TO.N,Net-(C6-Pad2)*%
X120650000Y-80225000D03*
%TD*%
%TO.P,C4,1*%
%TO.N,Net-(J2-Pin_5)*%
X117200000Y-109725000D03*
%TO.P,C4,2*%
%TO.N,Net-(C4-Pad2)*%
X119700000Y-109725000D03*
%TD*%
%TO.P,R15,1*%
%TO.N,Net-(J2-Pin_5)*%
X117590000Y-106725000D03*
D11*
%TO.P,R15,2*%
%TO.N,Net-(U1C--)*%
X125210000Y-106725000D03*
%TD*%
D12*
%TO.P,Input1,1,Pin_1*%
%TO.N,Net-(Input1-Pin_1)*%
X82500000Y-89925000D03*
D13*
%TO.P,Input1,2,Pin_2*%
%TO.N,Net-(Input1-Pin_2)*%
X82500000Y-91925000D03*
%TO.P,Input1,3,Pin_3*%
%TO.N,Net-(Input1-Pin_3)*%
X82500000Y-93925000D03*
%TD*%
D10*
%TO.P,R18,1*%
%TO.N,Net-(U1D-+)*%
X117590000Y-91225000D03*
D11*
%TO.P,R18,2*%
%TO.N,Net-(C8-Pad1)*%
X125210000Y-91225000D03*
%TD*%
D10*
%TO.P,C13,1*%
%TO.N,GND*%
X108150000Y-85250000D03*
%TO.P,C13,2*%
%TO.N,Net-(Supply1-Pin_3)*%
X105650000Y-85250000D03*
%TD*%
%TO.P,C1,1*%
%TO.N,Net-(C1-Pad1)*%
X90400000Y-95475000D03*
%TO.P,C1,2*%
%TO.N,Net-(C1-Pad2)*%
X92900000Y-95475000D03*
%TD*%
%TO.P,C2,1*%
%TO.N,Net-(J2-Pin_2)*%
X95475000Y-74175000D03*
%TO.P,C2,2*%
%TO.N,Net-(C2-Pad2)*%
X97975000Y-74175000D03*
%TD*%
%TO.P,R9,1*%
%TO.N,Net-(C2-Pad2)*%
X105755000Y-70800000D03*
D11*
%TO.P,R9,2*%
%TO.N,Net-(J2-Pin_3)*%
X113375000Y-70800000D03*
%TD*%
D16*
%TO.P,U2,1,Rg*%
%TO.N,Net-(R4-Pad2)*%
X94280000Y-77605000D03*
D17*
%TO.P,U2,2,-*%
%TO.N,Net-(U2--)*%
X94280000Y-80145000D03*
%TO.P,U2,3,+*%
%TO.N,Net-(U2-+)*%
X94280000Y-82685000D03*
%TO.P,U2,4,Vs-*%
%TO.N,Net-(Supply1-Pin_3)*%
X94280000Y-85225000D03*
%TO.P,U2,5,Ref*%
%TO.N,GND*%
X101900000Y-85225000D03*
%TO.P,U2,6*%
%TO.N,Net-(J2-Pin_1)*%
X101900000Y-82685000D03*
%TO.P,U2,7,Vs+*%
%TO.N,Net-(Supply1-Pin_1)*%
X101900000Y-80145000D03*
%TO.P,U2,8,Rg*%
%TO.N,Net-(R5-Pad1)*%
X101900000Y-77605000D03*
%TD*%
D16*
%TO.P,U1,1*%
%TO.N,Net-(C1-Pad1)*%
X106780000Y-89105000D03*
D17*
%TO.P,U1,2,-*%
%TO.N,Net-(U1A--)*%
X106780000Y-91645000D03*
%TO.P,U1,3,+*%
%TO.N,GND*%
X106780000Y-94185000D03*
%TO.P,U1,4,V+*%
%TO.N,Net-(Supply1-Pin_1)*%
X106780000Y-96725000D03*
%TO.P,U1,5,+*%
%TO.N,Net-(U1B-+)*%
X106780000Y-99265000D03*
%TO.P,U1,6,-*%
%TO.N,Net-(U1B--)*%
X106780000Y-101805000D03*
%TO.P,U1,7*%
%TO.N,Net-(J2-Pin_3)*%
X106780000Y-104345000D03*
%TO.P,U1,8*%
%TO.N,Net-(J2-Pin_5)*%
X114400000Y-104345000D03*
%TO.P,U1,9,-*%
%TO.N,Net-(U1C--)*%
X114400000Y-101805000D03*
%TO.P,U1,10,+*%
%TO.N,Net-(U1C-+)*%
X114400000Y-99265000D03*
%TO.P,U1,11,V-*%
%TO.N,Net-(Supply1-Pin_3)*%
X114400000Y-96725000D03*
%TO.P,U1,12,+*%
%TO.N,Net-(U1D-+)*%
X114400000Y-94185000D03*
%TO.P,U1,13,-*%
%TO.N,Net-(J2-Pin_7)*%
X114400000Y-91645000D03*
%TO.P,U1,14*%
X114400000Y-89105000D03*
%TD*%
D10*
%TO.P,C12,1*%
%TO.N,Net-(Supply1-Pin_1)*%
X116675000Y-70975000D03*
%TO.P,C12,2*%
%TO.N,GND*%
X119175000Y-70975000D03*
%TD*%
%TO.P,C14,1*%
%TO.N,GND*%
X120450000Y-96725000D03*
%TO.P,C14,2*%
%TO.N,Net-(Supply1-Pin_3)*%
X117950000Y-96725000D03*
%TD*%
%TO.P,R4,1*%
%TO.N,Net-(U1A--)*%
X95900000Y-89975000D03*
D11*
%TO.P,R4,2*%
%TO.N,Net-(R4-Pad2)*%
X103520000Y-89975000D03*
%TD*%
D14*
%TO.P,REF\u002A\u002A,1*%
%TO.N,N/C*%
X80700000Y-112325000D03*
D15*
X80700000Y-112325000D03*
%TD*%
D14*
%TO.P,REF\u002A\u002A,1*%
%TO.N,N/C*%
X140125000Y-112275000D03*
D15*
X140125000Y-112275000D03*
%TD*%
D10*
%TO.P,R14,1*%
%TO.N,Net-(U1C-+)*%
X117590000Y-99225000D03*
D11*
%TO.P,R14,2*%
%TO.N,Net-(C4-Pad2)*%
X125210000Y-99225000D03*
%TD*%
D10*
%TO.P,R2,1*%
%TO.N,Net-(C1-Pad1)*%
X85900000Y-89975000D03*
D11*
%TO.P,R2,2*%
%TO.N,Net-(U1A--)*%
X93520000Y-89975000D03*
%TD*%
D10*
%TO.P,C7,1*%
%TO.N,Net-(C6-Pad2)*%
X126650000Y-80225000D03*
%TO.P,C7,2*%
%TO.N,Net-(J2-Pin_6)*%
X124150000Y-80225000D03*
%TD*%
%TO.P,R20,1*%
%TO.N,Net-(R19-Pad2)*%
X117900000Y-77225000D03*
D11*
%TO.P,R20,2*%
%TO.N,Net-(U3--)*%
X125520000Y-77225000D03*
%TD*%
D10*
%TO.P,R5,1*%
%TO.N,Net-(R5-Pad1)*%
X95900000Y-92475000D03*
D11*
%TO.P,R5,2*%
%TO.N,Net-(U1A--)*%
X103520000Y-92475000D03*
%TD*%
D16*
%TO.P,U3,1,NULL*%
%TO.N,unconnected-(U3-NULL-Pad1)*%
X106375000Y-74680000D03*
D17*
%TO.P,U3,2,-*%
%TO.N,Net-(U3--)*%
X106375000Y-77220000D03*
%TO.P,U3,3,+*%
%TO.N,Net-(U3-+)*%
X106375000Y-79760000D03*
%TO.P,U3,4,V-*%
%TO.N,Net-(Supply1-Pin_3)*%
X106375000Y-82300000D03*
%TO.P,U3,5,NULL*%
%TO.N,unconnected-(U3-NULL-Pad5)*%
X113995000Y-82300000D03*
%TO.P,U3,6*%
%TO.N,Net-(U3--)*%
X113995000Y-79760000D03*
%TO.P,U3,7,V+*%
%TO.N,Net-(Supply1-Pin_1)*%
X113995000Y-77220000D03*
%TO.P,U3,8,NC*%
%TO.N,unconnected-(U3-NC-Pad8)*%
X113995000Y-74680000D03*
%TD*%
D10*
%TO.P,C8,1*%
%TO.N,Net-(C8-Pad1)*%
X128400000Y-95725000D03*
%TO.P,C8,2*%
%TO.N,Net-(U3--)*%
X128400000Y-93225000D03*
%TD*%
%TO.P,R12,1*%
%TO.N,Net-(U1B--)*%
X103470000Y-102375000D03*
D11*
%TO.P,R12,2*%
%TO.N,GND*%
X95850000Y-102375000D03*
%TD*%
D10*
%TO.P,R11,1*%
%TO.N,Net-(J2-Pin_3)*%
X95850000Y-105375000D03*
D11*
%TO.P,R11,2*%
%TO.N,Net-(U1B--)*%
X103470000Y-105375000D03*
%TD*%
D10*
%TO.P,C17,1*%
%TO.N,GND*%
X88450000Y-103900000D03*
%TO.P,C17,2*%
%TO.N,Net-(Supply1-Pin_3)*%
X85950000Y-103900000D03*
%TD*%
%TO.P,R21,1*%
%TO.N,Net-(J2-Pin_7)*%
X117590000Y-85725000D03*
D11*
%TO.P,R21,2*%
%TO.N,Net-(U3-+)*%
X125210000Y-85725000D03*
%TD*%
D10*
%TO.P,R1,1*%
%TO.N,Net-(C1-Pad1)*%
X90910000Y-84300000D03*
D11*
%TO.P,R1,2*%
%TO.N,Net-(Input1-Pin_2)*%
X83290000Y-84300000D03*
%TD*%
D12*
%TO.P,J2,1,Pin_1*%
%TO.N,Net-(J2-Pin_1)*%
X131600000Y-93025000D03*
D13*
%TO.P,J2,2,Pin_2*%
%TO.N,Net-(J2-Pin_2)*%
X131600000Y-95025000D03*
%TO.P,J2,3,Pin_3*%
%TO.N,Net-(J2-Pin_3)*%
X131600000Y-97025000D03*
%TO.P,J2,4,Pin_4*%
%TO.N,Net-(J2-Pin_4)*%
X131600000Y-99025000D03*
%TO.P,J2,5,Pin_5*%
%TO.N,Net-(J2-Pin_5)*%
X131600000Y-101025000D03*
%TO.P,J2,6,Pin_6*%
%TO.N,Net-(J2-Pin_6)*%
X131600000Y-103025000D03*
%TO.P,J2,7,Pin_7*%
%TO.N,Net-(J2-Pin_7)*%
X131600000Y-105025000D03*
%TD*%
D10*
%TO.P,R19,1*%
%TO.N,Net-(C6-Pad2)*%
X125505000Y-74975000D03*
D11*
%TO.P,R19,2*%
%TO.N,Net-(R19-Pad2)*%
X117885000Y-74975000D03*
%TD*%
D10*
%TO.P,C9,1*%
%TO.N,Net-(C8-Pad1)*%
X128400000Y-89725000D03*
%TO.P,C9,2*%
%TO.N,Net-(U3--)*%
X128400000Y-87225000D03*
%TD*%
%TO.P,C16,1*%
%TO.N,Net-(Supply1-Pin_1)*%
X85975000Y-101175000D03*
%TO.P,C16,2*%
%TO.N,GND*%
X88475000Y-101175000D03*
%TD*%
%TO.P,C3,1*%
%TO.N,Net-(C2-Pad2)*%
X89975000Y-74175000D03*
%TO.P,C3,2*%
%TO.N,Net-(U1B-+)*%
X92475000Y-74175000D03*
%TD*%
%TO.P,R10,1*%
%TO.N,GND*%
X95840000Y-99925000D03*
D11*
%TO.P,R10,2*%
%TO.N,Net-(U1B-+)*%
X103460000Y-99925000D03*
%TD*%
D10*
%TO.P,R16,1*%
%TO.N,Net-(U1C--)*%
X117590000Y-104225000D03*
D11*
%TO.P,R16,2*%
%TO.N,GND*%
X125210000Y-104225000D03*
%TD*%
D10*
%TO.P,R3,1*%
%TO.N,Net-(C1-Pad2)*%
X93520000Y-92475000D03*
D11*
%TO.P,R3,2*%
%TO.N,Net-(U1A--)*%
X85900000Y-92475000D03*
%TD*%
D10*
%TO.P,C15,1*%
%TO.N,Net-(Supply1-Pin_1)*%
X103100000Y-97425000D03*
%TO.P,C15,2*%
%TO.N,GND*%
X100600000Y-97425000D03*
%TD*%
%TO.P,C5,1*%
%TO.N,Net-(U1C-+)*%
X122700000Y-109725000D03*
%TO.P,C5,2*%
%TO.N,GND*%
X125200000Y-109725000D03*
%TD*%
D18*
%TO.N,Net-(R4-Pad2)*%
X98700000Y-88025000D03*
%TO.N,Net-(U1C--)*%
X120600000Y-104425000D03*
X120800000Y-106725000D03*
%TO.N,Net-(J2-Pin_2)*%
X93625000Y-69000000D03*
%TO.N,Net-(J2-Pin_7)*%
X128137500Y-101562500D03*
%TO.N,Net-(Supply1-Pin_3)*%
X94700000Y-98925000D03*
%TD*%
D19*
%TO.N,Net-(C1-Pad2)*%
X93520000Y-94855000D02*
X92900000Y-95475000D01*
X93520000Y-92475000D02*
X93520000Y-94855000D01*
%TO.N,Net-(C1-Pad1)*%
X85900000Y-90725000D02*
X90400000Y-95225000D01*
X90910000Y-84300000D02*
X88950000Y-84300000D01*
X88950000Y-84300000D02*
X85900000Y-87350000D01*
X90400000Y-95225000D02*
X90400000Y-95475000D01*
X85900000Y-89975000D02*
X85900000Y-90725000D01*
X85900000Y-87350000D02*
X85900000Y-89975000D01*
%TO.N,Net-(U1B-+)*%
X106120000Y-99925000D02*
X106780000Y-99265000D01*
X92475000Y-74175000D02*
X94730000Y-76430000D01*
X103475000Y-77118299D02*
X103475000Y-88029720D01*
X103475000Y-88029720D02*
X101675000Y-89829720D01*
X94730000Y-76430000D02*
X102786701Y-76430000D01*
X102786701Y-76430000D02*
X103475000Y-77118299D01*
X101675000Y-98140000D02*
X103460000Y-99925000D01*
X101675000Y-89829720D02*
X101675000Y-98140000D01*
X103460000Y-99925000D02*
X106120000Y-99925000D01*
%TO.N,Net-(C4-Pad2)*%
X119700000Y-103835000D02*
X119700000Y-109725000D01*
X117590000Y-101725000D02*
X119700000Y-103835000D01*
%TO.N,GND*%
X125210000Y-104225000D02*
X124135000Y-105300000D01*
D20*
X108450000Y-99762767D02*
X108450000Y-95855000D01*
X108450000Y-95855000D02*
X106780000Y-94185000D01*
X98340000Y-97425000D02*
X95840000Y-99925000D01*
X102983654Y-101075000D02*
X105250000Y-101075000D01*
X100600000Y-97425000D02*
X100600000Y-98691346D01*
D19*
X124135000Y-105300000D02*
X124135000Y-108660000D01*
X124135000Y-108660000D02*
X125200000Y-109725000D01*
D20*
X105250000Y-101075000D02*
X105775000Y-100550000D01*
X105775000Y-100550000D02*
X107662767Y-100550000D01*
X100600000Y-97425000D02*
X98340000Y-97425000D01*
X107662767Y-100550000D02*
X108450000Y-99762767D01*
X100600000Y-98691346D02*
X102983654Y-101075000D01*
D19*
%TO.N,Net-(U1C-+)*%
X122700000Y-104335000D02*
X117590000Y-99225000D01*
X122700000Y-109725000D02*
X122700000Y-104335000D01*
%TO.N,Net-(U1D-+)*%
X116300000Y-82075000D02*
X116300000Y-92435000D01*
X118150000Y-80225000D02*
X116300000Y-82075000D01*
X114400000Y-94185000D02*
X114550000Y-94185000D01*
X116380000Y-92435000D02*
X117590000Y-91225000D01*
X114550000Y-94185000D02*
X116300000Y-92435000D01*
X116300000Y-92435000D02*
X116380000Y-92435000D01*
%TO.N,Net-(C6-Pad2)*%
X126650000Y-76120000D02*
X126650000Y-80225000D01*
X125505000Y-74975000D02*
X126650000Y-76120000D01*
%TO.N,Net-(C8-Pad1)*%
X125210000Y-92535000D02*
X125210000Y-91225000D01*
X128400000Y-95725000D02*
X125210000Y-92535000D01*
%TO.N,Net-(U3--)*%
X128400000Y-93225000D02*
X129800000Y-91825000D01*
X129800000Y-91825000D02*
X129800000Y-88625000D01*
X129800000Y-88625000D02*
X128400000Y-87225000D01*
%TO.N,Net-(R4-Pad2)*%
X103520000Y-94975000D02*
X104900000Y-93595000D01*
X104900000Y-91355000D02*
X103520000Y-89975000D01*
X98700000Y-81625000D02*
X94680000Y-77605000D01*
X104900000Y-93595000D02*
X104900000Y-91355000D01*
X94680000Y-77605000D02*
X94280000Y-77605000D01*
X98700000Y-88025000D02*
X98700000Y-81625000D01*
%TO.N,Net-(R5-Pad1)*%
X100200000Y-88175000D02*
X95900000Y-92475000D01*
X95900000Y-92475000D02*
X95900000Y-94975000D01*
X101900000Y-77605000D02*
X100200000Y-79305000D01*
X100200000Y-79305000D02*
X100200000Y-88175000D01*
%TO.N,Net-(U1B--)*%
X103470000Y-105375000D02*
X103470000Y-102375000D01*
X103470000Y-102375000D02*
X103625000Y-102375000D01*
X104195000Y-101805000D02*
X106780000Y-101805000D01*
X103625000Y-102375000D02*
X104195000Y-101805000D01*
%TO.N,Net-(U1C--)*%
X120600000Y-106525000D02*
X120600000Y-104425000D01*
X120800000Y-106725000D02*
X120600000Y-106525000D01*
X115170000Y-101805000D02*
X117590000Y-104225000D01*
X114400000Y-101805000D02*
X115170000Y-101805000D01*
%TO.N,Net-(R19-Pad2)*%
X117885000Y-74975000D02*
X117885000Y-77210000D01*
%TO.N,Net-(Input1-Pin_3)*%
X84525000Y-83115000D02*
X83310000Y-81900000D01*
X82500000Y-93925000D02*
X84525000Y-91900000D01*
X84525000Y-91900000D02*
X84525000Y-83115000D01*
%TO.N,Net-(Input1-Pin_1)*%
X82500000Y-89925000D02*
X82000000Y-89425000D01*
X82000000Y-80610000D02*
X83310000Y-79300000D01*
X82000000Y-89425000D02*
X82000000Y-80610000D01*
%TO.N,Net-(J2-Pin_2)*%
X132650000Y-76540864D02*
X132650000Y-93975000D01*
X132650000Y-93975000D02*
X131600000Y-95025000D01*
X125109136Y-69000000D02*
X132650000Y-76540864D01*
X93625000Y-69000000D02*
X125109136Y-69000000D01*
%TO.N,Net-(J2-Pin_5)*%
X114400000Y-104345000D02*
X115210000Y-104345000D01*
X115210000Y-104345000D02*
X117590000Y-106725000D01*
X117590000Y-109335000D02*
X117200000Y-109725000D01*
X117590000Y-106725000D02*
X117590000Y-109335000D01*
%TO.N,Net-(J2-Pin_6)*%
X123450000Y-92465000D02*
X125210000Y-94225000D01*
X123450000Y-80925000D02*
X123450000Y-92465000D01*
X131600000Y-103025000D02*
X130550000Y-101975000D01*
X124150000Y-80225000D02*
X123450000Y-80925000D01*
X130550000Y-99565000D02*
X125210000Y-94225000D01*
X130550000Y-101975000D02*
X130550000Y-99565000D01*
%TO.N,Net-(J2-Pin_7)*%
X113513299Y-95360000D02*
X112825000Y-94671701D01*
X121525000Y-97170280D02*
X121525000Y-96279720D01*
X114400000Y-91645000D02*
X114400000Y-89105000D01*
X125004720Y-100650000D02*
X121525000Y-97170280D01*
X121525000Y-96279720D02*
X120605280Y-95360000D01*
X128137500Y-101562500D02*
X127225000Y-100650000D01*
X120605280Y-95360000D02*
X113513299Y-95360000D01*
X127225000Y-100650000D02*
X125004720Y-100650000D01*
X112825000Y-94671701D02*
X112825000Y-93220000D01*
X112825000Y-93220000D02*
X114400000Y-91645000D01*
%TO.N,Net-(J2-Pin_4)*%
X129560000Y-106075000D02*
X132034925Y-106075000D01*
X132650000Y-105459925D02*
X132650000Y-100075000D01*
X132034925Y-106075000D02*
X132650000Y-105459925D01*
X132650000Y-100075000D02*
X131600000Y-99025000D01*
X125210000Y-101725000D02*
X129560000Y-106075000D01*
%TO.N,Net-(J2-Pin_3)*%
X112700000Y-89225000D02*
X112700000Y-90625000D01*
X132700000Y-107925000D02*
X133700000Y-106925000D01*
X124750000Y-102975000D02*
X125650000Y-102975000D01*
X125650000Y-102975000D02*
X130600000Y-107925000D01*
X111600000Y-91725000D02*
X111600000Y-99525000D01*
X104675000Y-106450000D02*
X106780000Y-104345000D01*
X133700000Y-99125000D02*
X131600000Y-97025000D01*
X106780000Y-104345000D02*
X113035000Y-98090000D01*
X112700000Y-90625000D02*
X111600000Y-91725000D01*
X133700000Y-106925000D02*
X133700000Y-99125000D01*
X113035000Y-98090000D02*
X119865000Y-98090000D01*
X130600000Y-107925000D02*
X132700000Y-107925000D01*
X113375000Y-70800000D02*
X112375000Y-71800000D01*
X119865000Y-98090000D02*
X124750000Y-102975000D01*
X112375000Y-88900000D02*
X112700000Y-89225000D01*
X112375000Y-71800000D02*
X112375000Y-88900000D01*
X95850000Y-105375000D02*
X96925000Y-106450000D01*
X96925000Y-106450000D02*
X104675000Y-106450000D01*
D20*
%TO.N,Net-(Supply1-Pin_3)*%
X94700000Y-98925000D02*
X94700000Y-85645000D01*
X94280000Y-85225000D02*
X92425000Y-85225000D01*
X94700000Y-85645000D02*
X94280000Y-85225000D01*
X92425000Y-85225000D02*
X90525000Y-87125000D01*
X82500000Y-104325000D02*
X85525000Y-104325000D01*
X85525000Y-104325000D02*
X85950000Y-103900000D01*
X90875000Y-102750000D02*
X94700000Y-98925000D01*
X87100000Y-102750000D02*
X90875000Y-102750000D01*
X85950000Y-103900000D02*
X87100000Y-102750000D01*
%TO.N,Net-(Supply1-Pin_1)*%
X113995000Y-76847767D02*
X113995000Y-77220000D01*
X103100000Y-97425000D02*
X106080000Y-97425000D01*
X86150000Y-73025000D02*
X77800000Y-81375000D01*
X116675000Y-70975000D02*
X116675000Y-74167767D01*
X77800000Y-95625000D02*
X82500000Y-100325000D01*
X116675000Y-74167767D02*
X113995000Y-76847767D01*
X77800000Y-81375000D02*
X77800000Y-95625000D01*
X106080000Y-97425000D02*
X106780000Y-96725000D01*
X102225000Y-73025000D02*
X86150000Y-73025000D01*
X103425000Y-74225000D02*
X102225000Y-73025000D01*
X83350000Y-101175000D02*
X82500000Y-100325000D01*
X85975000Y-101175000D02*
X83350000Y-101175000D01*
%TD*%
M02*
