M48
; DRILL file {KiCad 9.0.5} date 2025-10-16T11:43:37+0330
; FORMAT={-:-/ absolute / metric / decimal}
; #@! TF.CreationDate,2025-10-16T11:43:37+03:30
; #@! TF.GenerationSoftware,Kicad,Pcbnew,9.0.5
; #@! TF.FileFunction,Plated,1,2,PTH
FMAT,2
METRIC
; #@! TA.AperFunction,Plated,PTH,ViaDrill
T1C0.300
; #@! TA.AperFunction,Plated,PTH,ComponentDrill
T2C0.700
; #@! TA.AperFunction,Plated,PTH,ComponentDrill
T3C0.800
; #@! TA.AperFunction,Plated,PTH,ComponentDrill
T4C2.500
%
G90
G05
T1
X93.625Y-69.0
X94.7Y-98.925
X98.7Y-88.025
X120.6Y-104.425
X120.8Y-106.725
X128.137Y-101.562
T2
X83.29Y-84.3
X83.31Y-79.3
X83.31Y-81.9
X85.9Y-89.975
X85.9Y-92.475
X85.95Y-103.9
X85.975Y-101.175
X88.025Y-87.125
X88.45Y-103.9
X88.475Y-101.175
X89.975Y-74.175
X90.4Y-95.475
X90.525Y-87.125
X90.91Y-84.3
X90.93Y-79.3
X90.93Y-81.9
X92.475Y-74.175
X92.9Y-95.475
X93.52Y-89.975
X93.52Y-92.475
X95.475Y-74.175
X95.84Y-99.925
X95.85Y-102.375
X95.85Y-105.375
X95.9Y-89.975
X95.9Y-92.475
X95.9Y-94.975
X97.975Y-74.175
X100.6Y-97.425
X100.925Y-74.225
X103.1Y-97.425
X103.425Y-74.225
X103.46Y-99.925
X103.47Y-102.375
X103.47Y-105.375
X103.52Y-89.975
X103.52Y-92.475
X103.52Y-94.975
X105.65Y-85.25
X105.755Y-70.8
X108.15Y-85.25
X113.375Y-70.8
X116.675Y-70.975
X117.2Y-109.725
X117.59Y-85.725
X117.59Y-88.725
X117.59Y-91.225
X117.59Y-94.225
X117.59Y-99.225
X117.59Y-101.725
X117.59Y-104.225
X117.59Y-106.725
X117.885Y-74.975
X117.9Y-77.225
X117.95Y-96.725
X118.15Y-80.225
X119.175Y-70.975
X119.7Y-109.725
X120.45Y-96.725
X120.65Y-80.225
X122.7Y-109.725
X124.15Y-80.225
X125.2Y-109.725
X125.21Y-85.725
X125.21Y-88.725
X125.21Y-91.225
X125.21Y-94.225
X125.21Y-99.225
X125.21Y-101.725
X125.21Y-104.225
X125.21Y-106.725
X125.505Y-74.975
X125.52Y-77.225
X126.65Y-80.225
X128.4Y-87.225
X128.4Y-89.725
X128.4Y-93.225
X128.4Y-95.725
T3
X82.5Y-89.925
X82.5Y-91.925
X82.5Y-93.925
X82.5Y-100.325
X82.5Y-102.325
X82.5Y-104.325
X94.28Y-77.605
X94.28Y-80.145
X94.28Y-82.685
X94.28Y-85.225
X101.9Y-77.605
X101.9Y-80.145
X101.9Y-82.685
X101.9Y-85.225
X106.375Y-74.68
X106.375Y-77.22
X106.375Y-79.76
X106.375Y-82.3
X106.78Y-89.105
X106.78Y-91.645
X106.78Y-94.185
X106.78Y-96.725
X106.78Y-99.265
X106.78Y-101.805
X106.78Y-104.345
X113.995Y-74.68
X113.995Y-77.22
X113.995Y-79.76
X113.995Y-82.3
X114.4Y-89.105
X114.4Y-91.645
X114.4Y-94.185
X114.4Y-96.725
X114.4Y-99.265
X114.4Y-101.805
X114.4Y-104.345
X131.6Y-93.025
X131.6Y-95.025
X131.6Y-97.025
X131.6Y-99.025
X131.6Y-101.025
X131.6Y-103.025
X131.6Y-105.025
T4
X80.7Y-70.525
X80.7Y-112.325
X140.125Y-70.475
X140.125Y-112.275
M30
