%TF.GenerationSoftware,KiCad,Pcbnew,9.0.5*%
%TF.CreationDate,2025-10-16T11:43:33+03:30*%
%TF.ProjectId,ECG,4543472e-6b69-4636-9164-5f7063625858,rev?*%
%TF.SameCoordinates,Original*%
%TF.FileFunction,Copper,L2,Bot*%
%TF.FilePolarity,Positive*%
%FSLAX46Y46*%
G04 Gerber Fmt 4.6, Leading zero omitted, Abs format (unit mm)*
G04 Created by KiCad (PCBNEW 9.0.5) date 2025-10-16 11:43:33*
%MOMM*%
%LPD*%
G01*
G04 APERTURE LIST*
%TA.AperFunction,ComponentPad*%
%ADD10C,1.400000*%
%TD*%
%TA.AperFunction,ComponentPad*%
%ADD11O,1.400000X1.400000*%
%TD*%
%TA.AperFunction,ComponentPad*%
%ADD12R,1.350000X1.350000*%
%TD*%
%TA.AperFunction,ComponentPad*%
%ADD13O,1.350000X1.350000*%
%TD*%
%TA.AperFunction,ComponentPad*%
%ADD14C,2.900000*%
%TD*%
%TA.AperFunction,ConnectorPad*%
%ADD15C,5.000000*%
%TD*%
%TA.AperFunction,ComponentPad*%
%ADD16R,2.400000X1.600000*%
%TD*%
%TA.AperFunction,ComponentPad*%
%ADD17O,2.400000X1.600000*%
%TD*%
%TA.AperFunction,ViaPad*%
%ADD18C,0.800000*%
%TD*%
%TA.AperFunction,Conductor*%
%ADD19C,0.350000*%
%TD*%
%TA.AperFunction,Conductor*%
%ADD20C,0.500000*%
%TD*%
G04 APERTURE END LIST*
D10*
%TO.P,C10,1*%
%TO.N,Net-(Supply1-Pin_3)*%
X90525000Y-87125000D03*
%TO.P,C10,2*%
%TO.N,GND*%
X88025000Y-87125000D03*
%TD*%
%TO.P,R22,1*%
%TO.N,Net-(U3-+)*%
X117590000Y-88725000D03*
D11*
%TO.P,R22,2*%
%TO.N,GND*%
X125210000Y-88725000D03*
%TD*%
D10*
%TO.P,R7,1*%
%TO.N,Net-(U2--)*%
X90930000Y-79300000D03*
D11*
%TO.P,R7,2*%
%TO.N,Net-(Input1-Pin_1)*%
X83310000Y-79300000D03*
%TD*%
D10*
%TO.P,C11,1*%
%TO.N,Net-(Supply1-Pin_1)*%
X103425000Y-74225000D03*
%TO.P,C11,2*%
%TO.N,GND*%
X100925000Y-74225000D03*
%TD*%
D12*
%TO.P,Supply1,1,Pin_1*%
%TO.N,Net-(Supply1-Pin_1)*%
X82500000Y-100325000D03*
D13*
%TO.P,Supply1,2,Pin_2*%
%TO.N,GND*%
X82500000Y-102325000D03*
%TO.P,Supply1,3,Pin_3*%
%TO.N,Net-(Supply1-Pin_3)*%
X82500000Y-104325000D03*
%TD*%
D10*
%TO.P,R6,1*%
%TO.N,Net-(R5-Pad1)*%
X95900000Y-94975000D03*
D11*
%TO.P,R6,2*%
%TO.N,Net-(R4-Pad2)*%
X103520000Y-94975000D03*
%TD*%
D10*
%TO.P,R8,1*%
%TO.N,Net-(Input1-Pin_3)*%
X83310000Y-81900000D03*
D11*
%TO.P,R8,2*%
%TO.N,Net-(U2-+)*%
X90930000Y-81900000D03*
%TD*%
D10*
%TO.P,R17,1*%
%TO.N,Net-(C8-Pad1)*%
X117590000Y-94225000D03*
D11*
%TO.P,R17,2*%
%TO.N,Net-(J2-Pin_6)*%
X125210000Y-94225000D03*
%TD*%
D10*
%TO.P,R13,1*%
%TO.N,Net-(C4-Pad2)*%
X117590000Y-101725000D03*
D11*
%TO.P,R13,2*%
%TO.N,Net-(J2-Pin_4)*%
X125210000Y-101725000D03*
%TD*%
D14*
%TO.P,REF\u002A\u002A,1*%
%TO.N,N/C*%
X140125000Y-70475000D03*
D15*
X140125000Y-70475000D03*
%TD*%
D14*
%TO.P,REF\u002A\u002A,1*%
%TO.N,N/C*%
X80700000Y-70525000D03*
D15*
X80700000Y-70525000D03*
%TD*%
D10*
%TO.P,C6,1*%
%TO.N,Net-(U1D-+)*%
X118150000Y-80225000D03*
%TO.P,C6,2*%
%TO.N,Net-(C6-Pad2)*%
X120650000Y-80225000D03*
%TD*%
%TO.P,C4,1*%
%TO.N,Net-(J2-Pin_5)*%
X117200000Y-109725000D03*
%TO.P,C4,2*%
%TO.N,Net-(C4-Pad2)*%
X119700000Y-109725000D03*
%TD*%
%TO.P,R15,1*%
%TO.N,Net-(J2-Pin_5)*%
X117590000Y-106725000D03*
D11*
%TO.P,R15,2*%
%TO.N,Net-(U1C--)*%
X125210000Y-106725000D03*
%TD*%
D12*
%TO.P,Input1,1,Pin_1*%
%TO.N,Net-(Input1-Pin_1)*%
X82500000Y-89925000D03*
D13*
%TO.P,Input1,2,Pin_2*%
%TO.N,Net-(Input1-Pin_2)*%
X82500000Y-91925000D03*
%TO.P,Input1,3,Pin_3*%
%TO.N,Net-(Input1-Pin_3)*%
X82500000Y-93925000D03*
%TD*%
D10*
%TO.P,R18,1*%
%TO.N,Net-(U1D-+)*%
X117590000Y-91225000D03*
D11*
%TO.P,R18,2*%
%TO.N,Net-(C8-Pad1)*%
X125210000Y-91225000D03*
%TD*%
D10*
%TO.P,C13,1*%
%TO.N,GND*%
X108150000Y-85250000D03*
%TO.P,C13,2*%
%TO.N,Net-(Supply1-Pin_3)*%
X105650000Y-85250000D03*
%TD*%
%TO.P,C1,1*%
%TO.N,Net-(C1-Pad1)*%
X90400000Y-95475000D03*
%TO.P,C1,2*%
%TO.N,Net-(C1-Pad2)*%
X92900000Y-95475000D03*
%TD*%
%TO.P,C2,1*%
%TO.N,Net-(J2-Pin_2)*%
X95475000Y-74175000D03*
%TO.P,C2,2*%
%TO.N,Net-(C2-Pad2)*%
X97975000Y-74175000D03*
%TD*%
%TO.P,R9,1*%
%TO.N,Net-(C2-Pad2)*%
X105755000Y-70800000D03*
D11*
%TO.P,R9,2*%
%TO.N,Net-(J2-Pin_3)*%
X113375000Y-70800000D03*
%TD*%
D16*
%TO.P,U2,1,Rg*%
%TO.N,Net-(R4-Pad2)*%
X94280000Y-77605000D03*
D17*
%TO.P,U2,2,-*%
%TO.N,Net-(U2--)*%
X94280000Y-80145000D03*
%TO.P,U2,3,+*%
%TO.N,Net-(U2-+)*%
X94280000Y-82685000D03*
%TO.P,U2,4,Vs-*%
%TO.N,Net-(Supply1-Pin_3)*%
X94280000Y-85225000D03*
%TO.P,U2,5,Ref*%
%TO.N,GND*%
X101900000Y-85225000D03*
%TO.P,U2,6*%
%TO.N,Net-(J2-Pin_1)*%
X101900000Y-82685000D03*
%TO.P,U2,7,Vs+*%
%TO.N,Net-(Supply1-Pin_1)*%
X101900000Y-80145000D03*
%TO.P,U2,8,Rg*%
%TO.N,Net-(R5-Pad1)*%
X101900000Y-77605000D03*
%TD*%
D16*
%TO.P,U1,1*%
%TO.N,Net-(C1-Pad1)*%
X106780000Y-89105000D03*
D17*
%TO.P,U1,2,-*%
%TO.N,Net-(U1A--)*%
X106780000Y-91645000D03*
%TO.P,U1,3,+*%
%TO.N,GND*%
X106780000Y-94185000D03*
%TO.P,U1,4,V+*%
%TO.N,Net-(Supply1-Pin_1)*%
X106780000Y-96725000D03*
%TO.P,U1,5,+*%
%TO.N,Net-(U1B-+)*%
X106780000Y-99265000D03*
%TO.P,U1,6,-*%
%TO.N,Net-(U1B--)*%
X106780000Y-101805000D03*
%TO.P,U1,7*%
%TO.N,Net-(J2-Pin_3)*%
X106780000Y-104345000D03*
%TO.P,U1,8*%
%TO.N,Net-(J2-Pin_5)*%
X114400000Y-104345000D03*
%TO.P,U1,9,-*%
%TO.N,Net-(U1C--)*%
X114400000Y-101805000D03*
%TO.P,U1,10,+*%
%TO.N,Net-(U1C-+)*%
X114400000Y-99265000D03*
%TO.P,U1,11,V-*%
%TO.N,Net-(Supply1-Pin_3)*%
X114400000Y-96725000D03*
%TO.P,U1,12,+*%
%TO.N,Net-(U1D-+)*%
X114400000Y-94185000D03*
%TO.P,U1,13,-*%
%TO.N,Net-(J2-Pin_7)*%
X114400000Y-91645000D03*
%TO.P,U1,14*%
X114400000Y-89105000D03*
%TD*%
D10*
%TO.P,C12,1*%
%TO.N,Net-(Supply1-Pin_1)*%
X116675000Y-70975000D03*
%TO.P,C12,2*%
%TO.N,GND*%
X119175000Y-70975000D03*
%TD*%
%TO.P,C14,1*%
%TO.N,GND*%
X120450000Y-96725000D03*
%TO.P,C14,2*%
%TO.N,Net-(Supply1-Pin_3)*%
X117950000Y-96725000D03*
%TD*%
%TO.P,R4,1*%
%TO.N,Net-(U1A--)*%
X95900000Y-89975000D03*
D11*
%TO.P,R4,2*%
%TO.N,Net-(R4-Pad2)*%
X103520000Y-89975000D03*
%TD*%
D14*
%TO.P,REF\u002A\u002A,1*%
%TO.N,N/C*%
X80700000Y-112325000D03*
D15*
X80700000Y-112325000D03*
%TD*%
D14*
%TO.P,REF\u002A\u002A,1*%
%TO.N,N/C*%
X140125000Y-112275000D03*
D15*
X140125000Y-112275000D03*
%TD*%
D10*
%TO.P,R14,1*%
%TO.N,Net-(U1C-+)*%
X117590000Y-99225000D03*
D11*
%TO.P,R14,2*%
%TO.N,Net-(C4-Pad2)*%
X125210000Y-99225000D03*
%TD*%
D10*
%TO.P,R2,1*%
%TO.N,Net-(C1-Pad1)*%
X85900000Y-89975000D03*
D11*
%TO.P,R2,2*%
%TO.N,Net-(U1A--)*%
X93520000Y-89975000D03*
%TD*%
D10*
%TO.P,C7,1*%
%TO.N,Net-(C6-Pad2)*%
X126650000Y-80225000D03*
%TO.P,C7,2*%
%TO.N,Net-(J2-Pin_6)*%
X124150000Y-80225000D03*
%TD*%
%TO.P,R20,1*%
%TO.N,Net-(R19-Pad2)*%
X117900000Y-77225000D03*
D11*
%TO.P,R20,2*%
%TO.N,Net-(U3--)*%
X125520000Y-77225000D03*
%TD*%
D10*
%TO.P,R5,1*%
%TO.N,Net-(R5-Pad1)*%
X95900000Y-92475000D03*
D11*
%TO.P,R5,2*%
%TO.N,Net-(U1A--)*%
X103520000Y-92475000D03*
%TD*%
D16*
%TO.P,U3,1,NULL*%
%TO.N,unconnected-(U3-NULL-Pad1)*%
X106375000Y-74680000D03*
D17*
%TO.P,U3,2,-*%
%TO.N,Net-(U3--)*%
X106375000Y-77220000D03*
%TO.P,U3,3,+*%
%TO.N,Net-(U3-+)*%
X106375000Y-79760000D03*
%TO.P,U3,4,V-*%
%TO.N,Net-(Supply1-Pin_3)*%
X106375000Y-82300000D03*
%TO.P,U3,5,NULL*%
%TO.N,unconnected-(U3-NULL-Pad5)*%
X113995000Y-82300000D03*
%TO.P,U3,6*%
%TO.N,Net-(U3--)*%
X113995000Y-79760000D03*
%TO.P,U3,7,V+*%
%TO.N,Net-(Supply1-Pin_1)*%
X113995000Y-77220000D03*
%TO.P,U3,8,NC*%
%TO.N,unconnected-(U3-NC-Pad8)*%
X113995000Y-74680000D03*
%TD*%
D10*
%TO.P,C8,1*%
%TO.N,Net-(C8-Pad1)*%
X128400000Y-95725000D03*
%TO.P,C8,2*%
%TO.N,Net-(U3--)*%
X128400000Y-93225000D03*
%TD*%
%TO.P,R12,1*%
%TO.N,Net-(U1B--)*%
X103470000Y-102375000D03*
D11*
%TO.P,R12,2*%
%TO.N,GND*%
X95850000Y-102375000D03*
%TD*%
D10*
%TO.P,R11,1*%
%TO.N,Net-(J2-Pin_3)*%
X95850000Y-105375000D03*
D11*
%TO.P,R11,2*%
%TO.N,Net-(U1B--)*%
X103470000Y-105375000D03*
%TD*%
D10*
%TO.P,C17,1*%
%TO.N,GND*%
X88450000Y-103900000D03*
%TO.P,C17,2*%
%TO.N,Net-(Supply1-Pin_3)*%
X85950000Y-103900000D03*
%TD*%
%TO.P,R21,1*%
%TO.N,Net-(J2-Pin_7)*%
X117590000Y-85725000D03*
D11*
%TO.P,R21,2*%
%TO.N,Net-(U3-+)*%
X125210000Y-85725000D03*
%TD*%
D10*
%TO.P,R1,1*%
%TO.N,Net-(C1-Pad1)*%
X90910000Y-84300000D03*
D11*
%TO.P,R1,2*%
%TO.N,Net-(Input1-Pin_2)*%
X83290000Y-84300000D03*
%TD*%
D12*
%TO.P,J2,1,Pin_1*%
%TO.N,Net-(J2-Pin_1)*%
X131600000Y-93025000D03*
D13*
%TO.P,J2,2,Pin_2*%
%TO.N,Net-(J2-Pin_2)*%
X131600000Y-95025000D03*
%TO.P,J2,3,Pin_3*%
%TO.N,Net-(J2-Pin_3)*%
X131600000Y-97025000D03*
%TO.P,J2,4,Pin_4*%
%TO.N,Net-(J2-Pin_4)*%
X131600000Y-99025000D03*
%TO.P,J2,5,Pin_5*%
%TO.N,Net-(J2-Pin_5)*%
X131600000Y-101025000D03*
%TO.P,J2,6,Pin_6*%
%TO.N,Net-(J2-Pin_6)*%
X131600000Y-103025000D03*
%TO.P,J2,7,Pin_7*%
%TO.N,Net-(J2-Pin_7)*%
X131600000Y-105025000D03*
%TD*%
D10*
%TO.P,R19,1*%
%TO.N,Net-(C6-Pad2)*%
X125505000Y-74975000D03*
D11*
%TO.P,R19,2*%
%TO.N,Net-(R19-Pad2)*%
X117885000Y-74975000D03*
%TD*%
D10*
%TO.P,C9,1*%
%TO.N,Net-(C8-Pad1)*%
X128400000Y-89725000D03*
%TO.P,C9,2*%
%TO.N,Net-(U3--)*%
X128400000Y-87225000D03*
%TD*%
%TO.P,C16,1*%
%TO.N,Net-(Supply1-Pin_1)*%
X85975000Y-101175000D03*
%TO.P,C16,2*%
%TO.N,GND*%
X88475000Y-101175000D03*
%TD*%
%TO.P,C3,1*%
%TO.N,Net-(C2-Pad2)*%
X89975000Y-74175000D03*
%TO.P,C3,2*%
%TO.N,Net-(U1B-+)*%
X92475000Y-74175000D03*
%TD*%
%TO.P,R10,1*%
%TO.N,GND*%
X95840000Y-99925000D03*
D11*
%TO.P,R10,2*%
%TO.N,Net-(U1B-+)*%
X103460000Y-99925000D03*
%TD*%
D10*
%TO.P,R16,1*%
%TO.N,Net-(U1C--)*%
X117590000Y-104225000D03*
D11*
%TO.P,R16,2*%
%TO.N,GND*%
X125210000Y-104225000D03*
%TD*%
D10*
%TO.P,R3,1*%
%TO.N,Net-(C1-Pad2)*%
X93520000Y-92475000D03*
D11*
%TO.P,R3,2*%
%TO.N,Net-(U1A--)*%
X85900000Y-92475000D03*
%TD*%
D10*
%TO.P,C15,1*%
%TO.N,Net-(Supply1-Pin_1)*%
X103100000Y-97425000D03*
%TO.P,C15,2*%
%TO.N,GND*%
X100600000Y-97425000D03*
%TD*%
%TO.P,C5,1*%
%TO.N,Net-(U1C-+)*%
X122700000Y-109725000D03*
%TO.P,C5,2*%
%TO.N,GND*%
X125200000Y-109725000D03*
%TD*%
D18*
%TO.N,Net-(R4-Pad2)*%
X98700000Y-88025000D03*
%TO.N,Net-(U1C--)*%
X120600000Y-104425000D03*
X120800000Y-106725000D03*
%TO.N,Net-(J2-Pin_2)*%
X93625000Y-69000000D03*
%TO.N,Net-(J2-Pin_7)*%
X128137500Y-101562500D03*
%TO.N,Net-(Supply1-Pin_3)*%
X94700000Y-98925000D03*
%TD*%
D19*
%TO.N,Net-(C1-Pad1)*%
X105975000Y-88300000D02*
X106780000Y-89105000D01*
X101150000Y-88300000D02*
X105975000Y-88300000D01*
X93010000Y-86400000D02*
X99250000Y-86400000D01*
X90910000Y-84300000D02*
X93010000Y-86400000D01*
X99250000Y-86400000D02*
X101150000Y-88300000D01*
%TO.N,Net-(C2-Pad2)*%
X91675000Y-72475000D02*
X96275000Y-72475000D01*
X101350000Y-70800000D02*
X97975000Y-74175000D01*
X89975000Y-74175000D02*
X91675000Y-72475000D01*
X105755000Y-70800000D02*
X101350000Y-70800000D01*
X96275000Y-72475000D02*
X97975000Y-74175000D01*
%TO.N,Net-(C4-Pad2)*%
X125210000Y-99225000D02*
X120090000Y-99225000D01*
X120090000Y-99225000D02*
X117590000Y-101725000D01*
D20*
%TO.N,GND*%
X108070000Y-95475000D02*
X106780000Y-94185000D01*
X120450000Y-96725000D02*
X119200000Y-95475000D01*
X119200000Y-95475000D02*
X108070000Y-95475000D01*
D19*
%TO.N,Net-(U1C-+)*%
X114400000Y-99265000D02*
X117550000Y-99265000D01*
%TO.N,Net-(C6-Pad2)*%
X125550000Y-81325000D02*
X121750000Y-81325000D01*
X121750000Y-81325000D02*
X120650000Y-80225000D01*
X126650000Y-80225000D02*
X125550000Y-81325000D01*
%TO.N,Net-(C8-Pad1)*%
X126900000Y-91225000D02*
X128400000Y-89725000D01*
X117590000Y-94225000D02*
X122210000Y-94225000D01*
X125210000Y-91225000D02*
X126900000Y-91225000D01*
X122210000Y-94225000D02*
X125210000Y-91225000D01*
%TO.N,Net-(U3--)*%
X123920000Y-78825000D02*
X127200000Y-78825000D01*
X111455000Y-77220000D02*
X113995000Y-79760000D01*
X123920000Y-78825000D02*
X116900000Y-78825000D01*
X127200000Y-78825000D02*
X128400000Y-80025000D01*
X115965000Y-79760000D02*
X113995000Y-79760000D01*
X125520000Y-77225000D02*
X123920000Y-78825000D01*
X116900000Y-78825000D02*
X115965000Y-79760000D01*
X128400000Y-80025000D02*
X128400000Y-87225000D01*
X106375000Y-77220000D02*
X111455000Y-77220000D01*
%TO.N,Net-(U1A--)*%
X93770000Y-90225000D02*
X93520000Y-89975000D01*
X104350000Y-91645000D02*
X103520000Y-92475000D01*
X88400000Y-89975000D02*
X85900000Y-92475000D01*
X95650000Y-90225000D02*
X93770000Y-90225000D01*
X93520000Y-89975000D02*
X88400000Y-89975000D01*
X106780000Y-91645000D02*
X104350000Y-91645000D01*
X103520000Y-92475000D02*
X98400000Y-92475000D01*
X95900000Y-89975000D02*
X95650000Y-90225000D01*
X98400000Y-92475000D02*
X95900000Y-89975000D01*
%TO.N,Net-(R4-Pad2)*%
X103520000Y-89975000D02*
X101350000Y-89975000D01*
X99400000Y-88025000D02*
X98700000Y-88025000D01*
X101350000Y-89975000D02*
X99400000Y-88025000D01*
%TO.N,Net-(U2--)*%
X94280000Y-80145000D02*
X91775000Y-80145000D01*
X91775000Y-80145000D02*
X90930000Y-79300000D01*
%TO.N,Net-(U2-+)*%
X91715000Y-82685000D02*
X90930000Y-81900000D01*
X94280000Y-82685000D02*
X91715000Y-82685000D01*
%TO.N,Net-(U1C--)*%
X120000000Y-104225000D02*
X117590000Y-104225000D01*
X125210000Y-106725000D02*
X120800000Y-106725000D01*
X120200000Y-104425000D02*
X120000000Y-104225000D01*
X120600000Y-104425000D02*
X120200000Y-104425000D01*
%TO.N,Net-(U3-+)*%
X117650000Y-84125000D02*
X112990000Y-84125000D01*
X112990000Y-84125000D02*
X108625000Y-79760000D01*
X118665000Y-85140000D02*
X117650000Y-84125000D01*
X117590000Y-88725000D02*
X122210000Y-88725000D01*
X118665000Y-87650000D02*
X118665000Y-85140000D01*
X117590000Y-88725000D02*
X118665000Y-87650000D01*
X122210000Y-88725000D02*
X125210000Y-85725000D01*
X106375000Y-79760000D02*
X108625000Y-79760000D01*
%TO.N,Net-(Input1-Pin_2)*%
X80700000Y-90125000D02*
X80700000Y-86890000D01*
X80700000Y-86890000D02*
X83290000Y-84300000D01*
X82500000Y-91925000D02*
X80700000Y-90125000D01*
%TO.N,Net-(J2-Pin_2)*%
X93604720Y-69020280D02*
X93625000Y-69000000D01*
X88900000Y-73729720D02*
X93604720Y-69025000D01*
X93604720Y-69025000D02*
X93604720Y-69020280D01*
X95475000Y-74175000D02*
X94400000Y-75250000D01*
X89529720Y-75250000D02*
X88900000Y-74620280D01*
X88900000Y-74620280D02*
X88900000Y-73729720D01*
X94400000Y-75250000D02*
X89529720Y-75250000D01*
%TO.N,Net-(J2-Pin_5)*%
X133475000Y-102900000D02*
X133475000Y-106200000D01*
X131600000Y-101025000D02*
X133475000Y-102900000D01*
X133475000Y-106200000D02*
X131875000Y-107800000D01*
X118665000Y-107800000D02*
X117590000Y-106725000D01*
X131875000Y-107800000D02*
X118665000Y-107800000D01*
%TO.N,Net-(J2-Pin_7)*%
X128137500Y-101562500D02*
X131600000Y-105025000D01*
X117590000Y-85725000D02*
X114400000Y-88915000D01*
X114400000Y-88915000D02*
X114400000Y-89105000D01*
%TO.N,Net-(J2-Pin_1)*%
X110795000Y-81125000D02*
X117475000Y-81125000D01*
X101900000Y-82685000D02*
X104800000Y-79785000D01*
X105488299Y-78585000D02*
X108255000Y-78585000D01*
X131600000Y-91400000D02*
X131600000Y-93025000D01*
X104800000Y-79785000D02*
X104800000Y-79273299D01*
X117475000Y-81125000D02*
X121000000Y-84650000D01*
X104800000Y-79273299D02*
X105488299Y-78585000D01*
X128850000Y-88650000D02*
X131600000Y-91400000D01*
X127325000Y-87670280D02*
X128304720Y-88650000D01*
X127325000Y-86319720D02*
X127325000Y-87670280D01*
X108255000Y-78585000D02*
X110795000Y-81125000D01*
X128304720Y-88650000D02*
X128850000Y-88650000D01*
X121000000Y-84650000D02*
X125655280Y-84650000D01*
X125655280Y-84650000D02*
X127325000Y-86319720D01*
D20*
%TO.N,Net-(Supply1-Pin_3)*%
X95570000Y-83935000D02*
X104335000Y-83935000D01*
X114400000Y-96725000D02*
X117950000Y-96725000D01*
X94850000Y-98775000D02*
X105102233Y-98775000D01*
X105650000Y-83025000D02*
X106375000Y-82300000D01*
X113150000Y-97975000D02*
X114400000Y-96725000D01*
X94280000Y-85225000D02*
X95570000Y-83935000D01*
X94700000Y-98925000D02*
X94850000Y-98775000D01*
X105902233Y-97975000D02*
X113150000Y-97975000D01*
X104335000Y-83935000D02*
X105650000Y-85250000D01*
X105650000Y-85250000D02*
X105650000Y-83025000D01*
X105102233Y-98775000D02*
X105902233Y-97975000D01*
%TO.N,Net-(Supply1-Pin_1)*%
X101950000Y-96275000D02*
X103100000Y-97425000D01*
X101900000Y-80145000D02*
X103550000Y-78495000D01*
X103956346Y-74225000D02*
X108531346Y-69650000D01*
X99673654Y-96725000D02*
X100123654Y-96275000D01*
X100123654Y-96275000D02*
X101950000Y-96275000D01*
X103550000Y-78495000D02*
X103550000Y-74350000D01*
X90425000Y-96725000D02*
X99673654Y-96725000D01*
X85975000Y-101175000D02*
X90425000Y-96725000D01*
X103550000Y-74350000D02*
X103425000Y-74225000D01*
X108531346Y-69650000D02*
X115350000Y-69650000D01*
X103425000Y-74225000D02*
X103956346Y-74225000D01*
X115350000Y-69650000D02*
X116675000Y-70975000D01*
%TD*%
%TA.AperFunction,Conductor*%
%TO.N,GND*%
G36*
X124224054Y-99936819D02*
G01*
X124399917Y-100112681D01*
X124529971Y-100242735D01*
X124751055Y-100334310D01*
X124814134Y-100360439D01*
X124881242Y-100427547D01*
X124881242Y-100522453D01*
X124814134Y-100589561D01*
X124529970Y-100707265D01*
X124192265Y-101044970D01*
X124009500Y-101486204D01*
X124009500Y-101963795D01*
X124090487Y-102159315D01*
X124192265Y-102405029D01*
X124529971Y-102742735D01*
X124814789Y-102860710D01*
X124881896Y-102927817D01*
X124881896Y-103022723D01*
X124814788Y-103089831D01*
X124530254Y-103207689D01*
X124192689Y-103545254D01*
X124014683Y-103974999D01*
X124014683Y-103975000D01*
X124965025Y-103975000D01*
X124860000Y-104080025D01*
X124860000Y-104369975D01*
X124965025Y-104475000D01*
X124014683Y-104475000D01*
X124192689Y-104904745D01*
X124530254Y-105242310D01*
X124814788Y-105360168D01*
X124881896Y-105427276D01*
X124881896Y-105522182D01*
X124814788Y-105589290D01*
X124529970Y-105707265D01*
X124224054Y-106013181D01*
X124136373Y-106049500D01*
X121449361Y-106049500D01*
X121361680Y-106013181D01*
X121172999Y-105824500D01*
X120427001Y-105824500D01*
X120427000Y-105824500D01*
X119899500Y-106352000D01*
X119899500Y-107000500D01*
X119863181Y-107088181D01*
X119775500Y-107124500D01*
X118996163Y-107124500D01*
X118908482Y-107088181D01*
X118826819Y-107006518D01*
X118790500Y-106918837D01*
X118790500Y-106486207D01*
X118790499Y-106486204D01*
X118787847Y-106479801D01*
X118607735Y-106044971D01*
X118270029Y-105707265D01*
X117985864Y-105589560D01*
X117918757Y-105522453D01*
X117918757Y-105427547D01*
X117985864Y-105360439D01*
X118270029Y-105242735D01*
X118431090Y-105081674D01*
X118575946Y-104936819D01*
X118663627Y-104900500D01*
X119668837Y-104900500D01*
X119756518Y-104936819D01*
X119920199Y-105100500D01*
X119950639Y-105100500D01*
X120038320Y-105136819D01*
X120227001Y-105325500D01*
X120972999Y-105325500D01*
X121500500Y-104797999D01*
X121500500Y-104052001D01*
X120972999Y-103524500D01*
X120227001Y-103524500D01*
X120227000Y-103524500D01*
X120204214Y-103533939D01*
X120201869Y-103528279D01*
X120150639Y-103549500D01*
X118663627Y-103549500D01*
X118575946Y-103513181D01*
X118270030Y-103207266D01*
X118270029Y-103207265D01*
X118203725Y-103179801D01*
X117985864Y-103089560D01*
X117918757Y-103022453D01*
X117918757Y-102927547D01*
X117985864Y-102860439D01*
X118270029Y-102742735D01*
X118607735Y-102405029D01*
X118790500Y-101963794D01*
X118790500Y-101531162D01*
X118826819Y-101443481D01*
X120333482Y-99936819D01*
X120421163Y-99900500D01*
X124136373Y-99900500D01*
X124224054Y-99936819D01*
G37*
%TD.AperFunction*%
%TA.AperFunction,Conductor*%
G36*
X129616908Y-90372210D02*
G01*
X130888181Y-91643482D01*
X130924500Y-91731163D01*
X130924500Y-91738030D01*
X130888181Y-91825711D01*
X130824692Y-91859647D01*
X130729714Y-91878539D01*
X130564160Y-91989160D01*
X130453540Y-92154715D01*
X130453538Y-92154719D01*
X130424500Y-92300702D01*
X130424500Y-93749289D01*
X130453540Y-93895287D01*
X130514290Y-93986204D01*
X130564160Y-94060840D01*
X130640902Y-94112117D01*
X130693628Y-94191028D01*
X130675113Y-94284110D01*
X130659693Y-94302900D01*
X130603460Y-94359133D01*
X130424500Y-94791176D01*
X130424500Y-95258823D01*
X130603460Y-95690867D01*
X130603461Y-95690868D01*
X130849911Y-95937319D01*
X130886230Y-96025000D01*
X130849911Y-96112681D01*
X130603460Y-96359132D01*
X130424500Y-96791176D01*
X130424500Y-97258823D01*
X130603460Y-97690867D01*
X130603461Y-97690868D01*
X130849911Y-97937319D01*
X130886230Y-98025000D01*
X130849911Y-98112681D01*
X130603460Y-98359132D01*
X130424500Y-98791176D01*
X130424500Y-99258823D01*
X130603460Y-99690867D01*
X130603461Y-99690868D01*
X130849911Y-99937319D01*
X130886230Y-100025000D01*
X130849911Y-100112681D01*
X130603460Y-100359132D01*
X130424500Y-100791176D01*
X130424500Y-101258823D01*
X130603460Y-101690867D01*
X130603461Y-101690868D01*
X130849911Y-101937319D01*
X130886230Y-102025000D01*
X130849911Y-102112681D01*
X130603460Y-102359132D01*
X130465343Y-102692572D01*
X130398234Y-102759680D01*
X130303329Y-102759680D01*
X130263101Y-102732800D01*
X129074319Y-101544018D01*
X129038000Y-101456337D01*
X129038000Y-101189501D01*
X128510499Y-100662000D01*
X127764501Y-100662000D01*
X127764500Y-100662000D01*
X127237000Y-101189500D01*
X127237000Y-101189501D01*
X127237000Y-101935499D01*
X127764501Y-102463000D01*
X128031337Y-102463000D01*
X128119018Y-102499319D01*
X130388181Y-104768482D01*
X130424500Y-104856163D01*
X130424500Y-105258823D01*
X130584668Y-105645499D01*
X130603460Y-105690867D01*
X130934133Y-106021540D01*
X131239631Y-106148082D01*
X131366176Y-106200499D01*
X131366177Y-106200499D01*
X131366179Y-106200500D01*
X131366180Y-106200500D01*
X131833820Y-106200500D01*
X131833821Y-106200500D01*
X132265867Y-106021540D01*
X132587819Y-105699588D01*
X132675500Y-105663269D01*
X132763181Y-105699588D01*
X132799500Y-105787269D01*
X132799500Y-105868837D01*
X132763181Y-105956518D01*
X131631518Y-107088181D01*
X131543837Y-107124500D01*
X126529513Y-107124500D01*
X126441832Y-107088181D01*
X126405513Y-107000500D01*
X126410334Y-106976214D01*
X126408117Y-106975773D01*
X126410499Y-106963795D01*
X126410500Y-106963794D01*
X126410500Y-106486206D01*
X126227735Y-106044971D01*
X125890029Y-105707265D01*
X125605210Y-105589289D01*
X125538103Y-105522182D01*
X125538103Y-105427276D01*
X125605211Y-105360168D01*
X125889745Y-105242310D01*
X126227310Y-104904745D01*
X126405317Y-104475000D01*
X125454975Y-104475000D01*
X125560000Y-104369975D01*
X125560000Y-104080025D01*
X125454975Y-103975000D01*
X126405317Y-103975000D01*
X126405316Y-103974999D01*
X126227310Y-103545254D01*
X125889745Y-103207689D01*
X125605211Y-103089831D01*
X125538103Y-103022723D01*
X125538103Y-102927817D01*
X125605209Y-102860710D01*
X125890029Y-102742735D01*
X126227735Y-102405029D01*
X126410500Y-101963794D01*
X126410500Y-101486206D01*
X126227735Y-101044971D01*
X125890029Y-100707265D01*
X125605864Y-100589560D01*
X125538757Y-100522453D01*
X125538757Y-100427547D01*
X125605864Y-100360439D01*
X125890029Y-100242735D01*
X126227735Y-99905029D01*
X126410500Y-99463794D01*
X126410500Y-98986206D01*
X126227735Y-98544971D01*
X125890029Y-98207265D01*
X125448795Y-98024500D01*
X125448794Y-98024500D01*
X124971206Y-98024500D01*
X124971204Y-98024500D01*
X124529970Y-98207265D01*
X124224054Y-98513181D01*
X124136373Y-98549500D01*
X119810198Y-98549500D01*
X119002181Y-99357517D01*
X118914500Y-99393836D01*
X118826819Y-99357517D01*
X118790500Y-99269836D01*
X118790500Y-98986207D01*
X118790499Y-98986204D01*
X118753530Y-98896953D01*
X118607735Y-98544971D01*
X118270029Y-98207265D01*
X118161776Y-98162425D01*
X118094668Y-98095316D01*
X118094668Y-98000411D01*
X118161777Y-97933303D01*
X118185043Y-97926246D01*
X118188793Y-97925500D01*
X118188794Y-97925500D01*
X118619752Y-97746992D01*
X119781559Y-97746992D01*
X120211302Y-97924999D01*
X120211306Y-97925000D01*
X120688694Y-97925000D01*
X120688697Y-97924999D01*
X121118439Y-97746992D01*
X120450001Y-97078554D01*
X120450000Y-97078554D01*
X119781559Y-97746992D01*
X118619752Y-97746992D01*
X118630029Y-97742735D01*
X118967735Y-97405029D01*
X119085710Y-97120210D01*
X119152817Y-97053104D01*
X119247723Y-97053104D01*
X119314831Y-97120212D01*
X119428006Y-97393439D01*
X120096446Y-96725000D01*
X120096446Y-96724999D01*
X119951472Y-96580025D01*
X120100000Y-96580025D01*
X120100000Y-96869975D01*
X120305025Y-97075000D01*
X120594975Y-97075000D01*
X120800000Y-96869975D01*
X120800000Y-96724999D01*
X120803554Y-96724999D01*
X120803554Y-96725000D01*
X121471992Y-97393439D01*
X121649999Y-96963697D01*
X121650000Y-96963693D01*
X121650000Y-96486306D01*
X121649999Y-96486302D01*
X121471992Y-96056559D01*
X120803554Y-96724999D01*
X120800000Y-96724999D01*
X120800000Y-96580025D01*
X120594975Y-96375000D01*
X120305025Y-96375000D01*
X120100000Y-96580025D01*
X119951472Y-96580025D01*
X119428006Y-96056559D01*
X119314831Y-96329787D01*
X119247723Y-96396895D01*
X119152817Y-96396895D01*
X119085709Y-96329787D01*
X119042098Y-96224500D01*
X118967735Y-96044971D01*
X118630029Y-95707265D01*
X118619747Y-95703006D01*
X119781559Y-95703006D01*
X120450000Y-96371446D01*
X120450001Y-96371446D01*
X121118439Y-95703006D01*
X120688697Y-95525000D01*
X120211303Y-95525000D01*
X119781559Y-95703006D01*
X118619747Y-95703006D01*
X118590441Y-95690867D01*
X118188793Y-95524499D01*
X118185035Y-95523752D01*
X118181849Y-95521623D01*
X118177510Y-95519826D01*
X118177867Y-95518962D01*
X118106125Y-95471024D01*
X118087612Y-95377941D01*
X118140340Y-95299031D01*
X118161774Y-95287575D01*
X118270029Y-95242735D01*
X118467794Y-95044970D01*
X118575946Y-94936819D01*
X118663627Y-94900500D01*
X122489801Y-94900500D01*
X124000640Y-93389660D01*
X124088319Y-93353342D01*
X124176000Y-93389661D01*
X124212319Y-93477342D01*
X124195420Y-93533058D01*
X124196939Y-93533688D01*
X124192265Y-93544970D01*
X124192265Y-93544971D01*
X124138199Y-93675499D01*
X124009500Y-93986204D01*
X124009500Y-94463795D01*
X124122336Y-94736206D01*
X124192265Y-94905029D01*
X124529971Y-95242735D01*
X124971206Y-95425500D01*
X124971208Y-95425500D01*
X125448792Y-95425500D01*
X125448794Y-95425500D01*
X125890029Y-95242735D01*
X126227735Y-94905029D01*
X126410500Y-94463794D01*
X126410500Y-93986206D01*
X126227735Y-93544971D01*
X125890029Y-93207265D01*
X125553527Y-93067881D01*
X125448795Y-93024500D01*
X125448794Y-93024500D01*
X124971206Y-93024500D01*
X124971204Y-93024500D01*
X124676056Y-93146754D01*
X124529971Y-93207265D01*
X124529970Y-93207265D01*
X124518688Y-93211939D01*
X124517532Y-93209149D01*
X124438140Y-93224934D01*
X124359234Y-93172201D01*
X124340727Y-93079117D01*
X124374659Y-93015640D01*
X124404095Y-92986204D01*
X127199500Y-92986204D01*
X127199500Y-93463795D01*
X127378229Y-93895285D01*
X127382265Y-93905029D01*
X127719971Y-94242735D01*
X127865223Y-94302900D01*
X128004134Y-94360439D01*
X128071242Y-94427547D01*
X128071242Y-94522453D01*
X128004134Y-94589561D01*
X127719970Y-94707265D01*
X127382265Y-95044970D01*
X127199500Y-95486204D01*
X127199500Y-95963795D01*
X127369827Y-96375000D01*
X127382265Y-96405029D01*
X127719971Y-96742735D01*
X128161206Y-96925500D01*
X128161208Y-96925500D01*
X128638792Y-96925500D01*
X128638794Y-96925500D01*
X129080029Y-96742735D01*
X129417735Y-96405029D01*
X129600500Y-95963794D01*
X129600500Y-95486206D01*
X129417735Y-95044971D01*
X129080029Y-94707265D01*
X128795864Y-94589560D01*
X128728757Y-94522453D01*
X128728757Y-94427547D01*
X128795864Y-94360439D01*
X129080029Y-94242735D01*
X129417735Y-93905029D01*
X129600500Y-93463794D01*
X129600500Y-92986206D01*
X129417735Y-92544971D01*
X129080029Y-92207265D01*
X129046751Y-92193481D01*
X128638795Y-92024500D01*
X128638794Y-92024500D01*
X128161206Y-92024500D01*
X128161204Y-92024500D01*
X127719970Y-92207265D01*
X127382265Y-92544970D01*
X127199500Y-92986204D01*
X124404095Y-92986204D01*
X124928481Y-92461818D01*
X125016162Y-92425500D01*
X125448792Y-92425500D01*
X125448794Y-92425500D01*
X125890029Y-92242735D01*
X126108264Y-92024500D01*
X126195946Y-91936819D01*
X126283627Y-91900500D01*
X127179801Y-91900500D01*
X128118482Y-90961819D01*
X128206163Y-90925500D01*
X128638792Y-90925500D01*
X128638794Y-90925500D01*
X129080029Y-90742735D01*
X129417735Y-90405029D01*
X129417737Y-90405022D01*
X129424521Y-90394872D01*
X129429144Y-90397961D01*
X129481768Y-90345333D01*
X129576673Y-90345327D01*
X129616908Y-90372210D01*
G37*
%TD.AperFunction*%
%TA.AperFunction,Conductor*%
G36*
X105258017Y-92356819D02*
G01*
X105273439Y-92375610D01*
X105277488Y-92381671D01*
X105277490Y-92381674D01*
X105643326Y-92747510D01*
X105771760Y-92800709D01*
X105838868Y-92867817D01*
X105838868Y-92962723D01*
X105771760Y-93029831D01*
X105643608Y-93082913D01*
X105277913Y-93448608D01*
X105080000Y-93926412D01*
X105080000Y-93935000D01*
X106464315Y-93935000D01*
X106380000Y-94019315D01*
X106380000Y-94350685D01*
X106464315Y-94435000D01*
X105080000Y-94435000D01*
X105080000Y-94443587D01*
X105277913Y-94921391D01*
X105643607Y-95287085D01*
X105643610Y-95287087D01*
X105771759Y-95340168D01*
X105838868Y-95407276D01*
X105838868Y-95502181D01*
X105771761Y-95569290D01*
X105643324Y-95622491D01*
X105277490Y-95988325D01*
X105079500Y-96466312D01*
X105079500Y-96983687D01*
X105268248Y-97439363D01*
X105268248Y-97534269D01*
X105241368Y-97574497D01*
X104827685Y-97988181D01*
X104740004Y-98024500D01*
X104336670Y-98024500D01*
X104248989Y-97988181D01*
X104212670Y-97900500D01*
X104222109Y-97853047D01*
X104232687Y-97827509D01*
X104300500Y-97663794D01*
X104300500Y-97186206D01*
X104117735Y-96744971D01*
X103780029Y-96407265D01*
X103774631Y-96405029D01*
X103766218Y-96401544D01*
X103699111Y-96334435D01*
X103699113Y-96239529D01*
X103766219Y-96172424D01*
X104200029Y-95992735D01*
X104537735Y-95655029D01*
X104720500Y-95213794D01*
X104720500Y-94736206D01*
X104537735Y-94294971D01*
X104200029Y-93957265D01*
X103915864Y-93839560D01*
X103848757Y-93772453D01*
X103848757Y-93677547D01*
X103915864Y-93610439D01*
X104200029Y-93492735D01*
X104537735Y-93155029D01*
X104720500Y-92713794D01*
X104720500Y-92444500D01*
X104756819Y-92356819D01*
X104844500Y-92320500D01*
X105170336Y-92320500D01*
X105258017Y-92356819D01*
G37*
%TD.AperFunction*%
%TA.AperFunction,Conductor*%
G36*
X108381517Y-80471818D02*
G01*
X112710198Y-84800500D01*
X112710199Y-84800500D01*
X116517374Y-84800500D01*
X116605055Y-84836819D01*
X116641374Y-84924500D01*
X116605055Y-85012181D01*
X116572266Y-85044969D01*
X116572265Y-85044970D01*
X116389500Y-85486204D01*
X116389500Y-85918835D01*
X116353181Y-86006516D01*
X114591518Y-87768181D01*
X114503837Y-87804500D01*
X113741312Y-87804500D01*
X113263325Y-88002490D01*
X112897490Y-88368325D01*
X112699500Y-88846312D01*
X112699500Y-89363687D01*
X112856508Y-89742735D01*
X112897490Y-89841674D01*
X113263326Y-90207510D01*
X113391108Y-90260439D01*
X113458216Y-90327548D01*
X113458216Y-90422453D01*
X113391108Y-90489560D01*
X113342924Y-90509518D01*
X113263325Y-90542490D01*
X112897490Y-90908325D01*
X112699500Y-91386312D01*
X112699500Y-91903687D01*
X112866212Y-92306163D01*
X112897490Y-92381674D01*
X113263326Y-92747510D01*
X113391108Y-92800439D01*
X113458216Y-92867548D01*
X113458216Y-92962453D01*
X113391108Y-93029560D01*
X113390456Y-93029831D01*
X113263325Y-93082490D01*
X112897490Y-93448325D01*
X112699500Y-93926312D01*
X112699500Y-94443687D01*
X112820666Y-94736206D01*
X112897490Y-94921674D01*
X113263326Y-95287510D01*
X113391108Y-95340439D01*
X113458216Y-95407548D01*
X113458216Y-95502453D01*
X113391108Y-95569560D01*
X113385094Y-95572052D01*
X113263325Y-95622490D01*
X112897490Y-95988325D01*
X112699500Y-96466312D01*
X112699500Y-96983683D01*
X112699501Y-96983690D01*
X112728230Y-97053048D01*
X112728230Y-97147953D01*
X112661121Y-97215061D01*
X112613669Y-97224500D01*
X108566331Y-97224500D01*
X108478650Y-97188181D01*
X108442331Y-97100500D01*
X108451770Y-97053048D01*
X108480498Y-96983690D01*
X108480499Y-96983687D01*
X108480500Y-96983685D01*
X108480500Y-96466315D01*
X108455114Y-96405029D01*
X108360040Y-96175500D01*
X108282510Y-95988326D01*
X107916674Y-95622490D01*
X107788239Y-95569290D01*
X107721131Y-95502181D01*
X107721131Y-95407276D01*
X107788240Y-95340168D01*
X107916390Y-95287087D01*
X108282086Y-94921391D01*
X108479999Y-94443587D01*
X108480000Y-94443584D01*
X108480000Y-94435000D01*
X107095685Y-94435000D01*
X107180000Y-94350685D01*
X107180000Y-94019315D01*
X107095685Y-93935000D01*
X108480000Y-93935000D01*
X108480000Y-93926415D01*
X108479999Y-93926412D01*
X108282086Y-93448608D01*
X107916391Y-93082913D01*
X107788239Y-93029831D01*
X107721131Y-92962723D01*
X107721131Y-92867817D01*
X107788237Y-92800710D01*
X107916674Y-92747510D01*
X108282510Y-92381674D01*
X108480500Y-91903685D01*
X108480500Y-91386315D01*
X108282510Y-90908326D01*
X107985135Y-90610951D01*
X107948816Y-90523270D01*
X107985135Y-90435589D01*
X108048622Y-90401654D01*
X108175285Y-90376460D01*
X108175286Y-90376459D01*
X108175287Y-90376459D01*
X108221879Y-90345327D01*
X108340840Y-90265840D01*
X108451460Y-90100285D01*
X108480500Y-89954293D01*
X108480499Y-88255708D01*
X108451460Y-88109715D01*
X108451459Y-88109714D01*
X108451459Y-88109712D01*
X108386958Y-88013181D01*
X108340840Y-87944160D01*
X108175285Y-87833540D01*
X108175283Y-87833539D01*
X108175280Y-87833538D01*
X108029296Y-87804500D01*
X108029293Y-87804500D01*
X106486163Y-87804500D01*
X106398482Y-87768181D01*
X106254801Y-87624500D01*
X101481163Y-87624500D01*
X101393482Y-87588181D01*
X99529801Y-85724500D01*
X96066331Y-85724500D01*
X95978650Y-85688181D01*
X95942331Y-85600500D01*
X95945122Y-85574342D01*
X95947486Y-85563387D01*
X95980500Y-85483685D01*
X95980500Y-84966315D01*
X95940170Y-84868949D01*
X95935201Y-84856953D01*
X95935201Y-84762047D01*
X96002309Y-84694939D01*
X96049762Y-84685500D01*
X100130779Y-84685500D01*
X100218460Y-84721819D01*
X100254779Y-84809500D01*
X100245340Y-84856953D01*
X100200000Y-84966412D01*
X100200000Y-84975000D01*
X101584315Y-84975000D01*
X101500000Y-85059315D01*
X101500000Y-85390685D01*
X101584315Y-85475000D01*
X100200000Y-85475000D01*
X100200000Y-85483587D01*
X100397913Y-85961391D01*
X100763608Y-86327086D01*
X101241412Y-86524999D01*
X101241416Y-86525000D01*
X101650000Y-86525000D01*
X101650000Y-85540685D01*
X101734315Y-85625000D01*
X102065685Y-85625000D01*
X102150000Y-85540685D01*
X102150000Y-86525000D01*
X102558584Y-86525000D01*
X102558587Y-86524999D01*
X103036391Y-86327086D01*
X103402086Y-85961391D01*
X103599999Y-85483587D01*
X103600000Y-85483584D01*
X103600000Y-85475000D01*
X102215685Y-85475000D01*
X102300000Y-85390685D01*
X102300000Y-85059315D01*
X102215685Y-84975000D01*
X103600000Y-84975000D01*
X103600000Y-84966415D01*
X103599999Y-84966412D01*
X103554660Y-84856953D01*
X103554660Y-84762047D01*
X103621768Y-84694939D01*
X103669221Y-84685500D01*
X103972771Y-84685500D01*
X104060452Y-84721819D01*
X104413181Y-85074548D01*
X104449500Y-85162229D01*
X104449500Y-85488795D01*
X104547132Y-85724500D01*
X104632265Y-85930029D01*
X104969971Y-86267735D01*
X105411206Y-86450500D01*
X105411208Y-86450500D01*
X105888792Y-86450500D01*
X105888794Y-86450500D01*
X106319752Y-86271992D01*
X107481559Y-86271992D01*
X107911302Y-86449999D01*
X107911306Y-86450000D01*
X108388694Y-86450000D01*
X108388697Y-86449999D01*
X108818439Y-86271992D01*
X108150001Y-85603554D01*
X108150000Y-85603554D01*
X107481559Y-86271992D01*
X106319752Y-86271992D01*
X106330029Y-86267735D01*
X106667735Y-85930029D01*
X106785710Y-85645210D01*
X106852817Y-85578104D01*
X106947723Y-85578104D01*
X107014831Y-85645212D01*
X107128006Y-85918439D01*
X107796446Y-85250000D01*
X107796446Y-85249999D01*
X107651472Y-85105025D01*
X107800000Y-85105025D01*
X107800000Y-85394975D01*
X108005025Y-85600000D01*
X108294975Y-85600000D01*
X108500000Y-85394975D01*
X108500000Y-85249999D01*
X108503554Y-85249999D01*
X108503554Y-85250001D01*
X109171992Y-85918439D01*
X109349999Y-85488697D01*
X109350000Y-85488693D01*
X109350000Y-85011306D01*
X109349999Y-85011302D01*
X109171992Y-84581559D01*
X108503554Y-85249999D01*
X108500000Y-85249999D01*
X108500000Y-85105025D01*
X108294975Y-84900000D01*
X108005025Y-84900000D01*
X107800000Y-85105025D01*
X107651472Y-85105025D01*
X107128006Y-84581559D01*
X107014831Y-84854787D01*
X106947723Y-84921895D01*
X106852817Y-84921895D01*
X106785709Y-84854787D01*
X106667735Y-84569971D01*
X106436819Y-84339055D01*
X106400500Y-84251374D01*
X106400500Y-84228006D01*
X107481559Y-84228006D01*
X108150000Y-84896446D01*
X108150001Y-84896446D01*
X108818439Y-84228006D01*
X108388697Y-84050000D01*
X107911303Y-84050000D01*
X107481559Y-84228006D01*
X106400500Y-84228006D01*
X106400500Y-83724500D01*
X106436819Y-83636819D01*
X106524500Y-83600500D01*
X107033684Y-83600500D01*
X107033685Y-83600500D01*
X107511674Y-83402510D01*
X107877510Y-83036674D01*
X108075500Y-82558685D01*
X108075500Y-82041315D01*
X108058593Y-82000499D01*
X107990795Y-81836819D01*
X107877510Y-81563326D01*
X107511674Y-81197490D01*
X107383890Y-81144560D01*
X107316783Y-81077453D01*
X107316783Y-80982547D01*
X107383890Y-80915439D01*
X107511674Y-80862510D01*
X107877510Y-80496674D01*
X107877512Y-80496667D01*
X107881561Y-80490610D01*
X107960472Y-80437883D01*
X107984664Y-80435500D01*
X108293837Y-80435500D01*
X108381517Y-80471818D01*
G37*
%TD.AperFunction*%
%TA.AperFunction,Conductor*%
G36*
X126425526Y-86375547D02*
G01*
X126613181Y-86563202D01*
X126649500Y-86650883D01*
X126649500Y-87950081D01*
X127475646Y-88776227D01*
X127511965Y-88863908D01*
X127475647Y-88951588D01*
X127469971Y-88957265D01*
X127382265Y-89044971D01*
X127199500Y-89486204D01*
X127199500Y-89918835D01*
X127163180Y-90006516D01*
X126768045Y-90401654D01*
X126656518Y-90513181D01*
X126568837Y-90549500D01*
X126283627Y-90549500D01*
X126195946Y-90513181D01*
X125890030Y-90207266D01*
X125890029Y-90207265D01*
X125649215Y-90107517D01*
X125605210Y-90089289D01*
X125538103Y-90022182D01*
X125538103Y-89927276D01*
X125605211Y-89860168D01*
X125889745Y-89742310D01*
X126227310Y-89404745D01*
X126405317Y-88975000D01*
X125454975Y-88975000D01*
X125560000Y-88869975D01*
X125560000Y-88580025D01*
X125454975Y-88475000D01*
X125460000Y-88475000D01*
X126405317Y-88475000D01*
X126405316Y-88474999D01*
X126227310Y-88045254D01*
X125889745Y-87707689D01*
X125460000Y-87529682D01*
X125460000Y-88475000D01*
X125454975Y-88475000D01*
X125354975Y-88375000D01*
X125065025Y-88375000D01*
X124860000Y-88580025D01*
X124860000Y-88869975D01*
X124965025Y-88975000D01*
X124014683Y-88975000D01*
X124192689Y-89404745D01*
X124530254Y-89742310D01*
X124814788Y-89860168D01*
X124881896Y-89927276D01*
X124881896Y-90022182D01*
X124814788Y-90089290D01*
X124529970Y-90207265D01*
X124192265Y-90544970D01*
X124009500Y-90986204D01*
X124009500Y-91418836D01*
X123973181Y-91506517D01*
X121966518Y-93513181D01*
X121878837Y-93549500D01*
X118663627Y-93549500D01*
X118575946Y-93513181D01*
X118270030Y-93207266D01*
X118270029Y-93207265D01*
X117828795Y-93024500D01*
X117828794Y-93024500D01*
X117351206Y-93024500D01*
X117351204Y-93024500D01*
X116909970Y-93207265D01*
X116572265Y-93544970D01*
X116389500Y-93986204D01*
X116389500Y-94463795D01*
X116502336Y-94736206D01*
X116572265Y-94905029D01*
X116909971Y-95242735D01*
X117351206Y-95425500D01*
X117351209Y-95425500D01*
X117354958Y-95426246D01*
X117358140Y-95428372D01*
X117362490Y-95430174D01*
X117362131Y-95431039D01*
X117433870Y-95478970D01*
X117452388Y-95572052D01*
X117399664Y-95650964D01*
X117378224Y-95662425D01*
X117269969Y-95707266D01*
X117039055Y-95938181D01*
X116951374Y-95974500D01*
X115940046Y-95974500D01*
X115852365Y-95938181D01*
X115536674Y-95622490D01*
X115408890Y-95569560D01*
X115341783Y-95502453D01*
X115341783Y-95407547D01*
X115408890Y-95340439D01*
X115536674Y-95287510D01*
X115902510Y-94921674D01*
X116100500Y-94443685D01*
X116100500Y-93926315D01*
X115902510Y-93448326D01*
X115536674Y-93082490D01*
X115408890Y-93029560D01*
X115341783Y-92962453D01*
X115341783Y-92867547D01*
X115408890Y-92800439D01*
X115536674Y-92747510D01*
X115902510Y-92381674D01*
X116100500Y-91903685D01*
X116100500Y-91386315D01*
X115902510Y-90908326D01*
X115536674Y-90542490D01*
X115408890Y-90489560D01*
X115341783Y-90422453D01*
X115341783Y-90327547D01*
X115408890Y-90260439D01*
X115536674Y-90207510D01*
X115902510Y-89841674D01*
X116100500Y-89363685D01*
X116100500Y-88846315D01*
X115934059Y-88444491D01*
X115934059Y-88349589D01*
X115960936Y-88309363D01*
X116380640Y-87889660D01*
X116468319Y-87853342D01*
X116556000Y-87889661D01*
X116592319Y-87977342D01*
X116575420Y-88033058D01*
X116576939Y-88033688D01*
X116572265Y-88044970D01*
X116572265Y-88044971D01*
X116545447Y-88109715D01*
X116389500Y-88486204D01*
X116389500Y-88963795D01*
X116555139Y-89363683D01*
X116572265Y-89405029D01*
X116909971Y-89742735D01*
X117131055Y-89834310D01*
X117194134Y-89860439D01*
X117261242Y-89927547D01*
X117261242Y-90022453D01*
X117194134Y-90089561D01*
X116909970Y-90207265D01*
X116572265Y-90544970D01*
X116389500Y-90986204D01*
X116389500Y-91463795D01*
X116561293Y-91878540D01*
X116572265Y-91905029D01*
X116909971Y-92242735D01*
X117351206Y-92425500D01*
X117351208Y-92425500D01*
X117828792Y-92425500D01*
X117828794Y-92425500D01*
X118270029Y-92242735D01*
X118607735Y-91905029D01*
X118790500Y-91463794D01*
X118790500Y-90986206D01*
X118607735Y-90544971D01*
X118270029Y-90207265D01*
X117985864Y-90089560D01*
X117918757Y-90022453D01*
X117918757Y-89927547D01*
X117985864Y-89860439D01*
X118270029Y-89742735D01*
X118463264Y-89549500D01*
X118575946Y-89436819D01*
X118663627Y-89400500D01*
X122489801Y-89400500D01*
X124002488Y-87887811D01*
X124090169Y-87851493D01*
X124177850Y-87887812D01*
X124214169Y-87975493D01*
X124196534Y-88033628D01*
X124197363Y-88033972D01*
X124193880Y-88042380D01*
X124193273Y-88044382D01*
X124192688Y-88045256D01*
X124014683Y-88474999D01*
X124014683Y-88475000D01*
X124960000Y-88475000D01*
X124960000Y-87529682D01*
X124959999Y-87529682D01*
X124530252Y-87707690D01*
X124529376Y-87708276D01*
X124528342Y-87708481D01*
X124518972Y-87712363D01*
X124518199Y-87710498D01*
X124436293Y-87726785D01*
X124357385Y-87674053D01*
X124338876Y-87580970D01*
X124372809Y-87517490D01*
X124928481Y-86961818D01*
X125016162Y-86925500D01*
X125448792Y-86925500D01*
X125448794Y-86925500D01*
X125890029Y-86742735D01*
X126227735Y-86405029D01*
X126227736Y-86405026D01*
X126234523Y-86394871D01*
X126240330Y-86398751D01*
X126290313Y-86348700D01*
X126385219Y-86348634D01*
X126425526Y-86375547D01*
G37*
%TD.AperFunction*%
%TA.AperFunction,Conductor*%
G36*
X145538181Y-66161819D02*
G01*
X145574500Y-66249500D01*
X145574500Y-117200500D01*
X145538181Y-117288181D01*
X145450500Y-117324500D01*
X75824500Y-117324500D01*
X75736819Y-117288181D01*
X75700500Y-117200500D01*
X75700500Y-111728161D01*
X77699500Y-111728161D01*
X77699500Y-111728163D01*
X77699500Y-112921837D01*
X78156299Y-114024647D01*
X79000353Y-114868701D01*
X80103163Y-115325500D01*
X80103165Y-115325500D01*
X81296835Y-115325500D01*
X81296837Y-115325500D01*
X82399647Y-114868701D01*
X83243701Y-114024647D01*
X83700500Y-112921837D01*
X83700500Y-111728163D01*
X83679788Y-111678161D01*
X137124500Y-111678161D01*
X137124500Y-112871838D01*
X137145211Y-112921838D01*
X137581299Y-113974647D01*
X138425353Y-114818701D01*
X139528163Y-115275500D01*
X139528165Y-115275500D01*
X140721835Y-115275500D01*
X140721837Y-115275500D01*
X141824647Y-114818701D01*
X142668701Y-113974647D01*
X143125500Y-112871837D01*
X143125500Y-111678163D01*
X142668701Y-110575353D01*
X141824647Y-109731299D01*
X141809437Y-109724999D01*
X140721838Y-109274500D01*
X140721837Y-109274500D01*
X139528163Y-109274500D01*
X139528161Y-109274500D01*
X138425352Y-109731299D01*
X137581299Y-110575352D01*
X137124500Y-111678161D01*
X83679788Y-111678161D01*
X83243701Y-110625353D01*
X82399647Y-109781299D01*
X81913729Y-109580025D01*
X81296838Y-109324500D01*
X81296837Y-109324500D01*
X80103163Y-109324500D01*
X80103161Y-109324500D01*
X79000352Y-109781299D01*
X78156299Y-110625352D01*
X77699500Y-111728161D01*
X75700500Y-111728161D01*
X75700500Y-99600702D01*
X81324500Y-99600702D01*
X81324500Y-101049289D01*
X81353540Y-101195287D01*
X81464159Y-101360839D01*
X81464160Y-101360840D01*
X81541325Y-101412400D01*
X81594051Y-101491309D01*
X81575537Y-101584391D01*
X81560117Y-101603181D01*
X81503883Y-101659416D01*
X81331743Y-102075000D01*
X82184315Y-102075000D01*
X82100000Y-102159315D01*
X82100000Y-102490685D01*
X82184315Y-102575000D01*
X81331743Y-102575000D01*
X81503883Y-102990584D01*
X81750264Y-103236965D01*
X81786583Y-103324646D01*
X81750265Y-103412327D01*
X81503460Y-103659133D01*
X81324500Y-104091176D01*
X81324500Y-104558823D01*
X81474931Y-104921992D01*
X81503460Y-104990867D01*
X81834133Y-105321540D01*
X82090056Y-105427547D01*
X82266176Y-105500499D01*
X82266177Y-105500499D01*
X82266179Y-105500500D01*
X82266180Y-105500500D01*
X82733820Y-105500500D01*
X82733821Y-105500500D01*
X83165867Y-105321540D01*
X83351203Y-105136204D01*
X94649500Y-105136204D01*
X94649500Y-105613795D01*
X94814931Y-106013181D01*
X94832265Y-106055029D01*
X95169971Y-106392735D01*
X95611206Y-106575500D01*
X95611208Y-106575500D01*
X96088792Y-106575500D01*
X96088794Y-106575500D01*
X96530029Y-106392735D01*
X96867735Y-106055029D01*
X97050500Y-105613794D01*
X97050500Y-105136206D01*
X97050499Y-105136204D01*
X102269500Y-105136204D01*
X102269500Y-105613795D01*
X102434931Y-106013181D01*
X102452265Y-106055029D01*
X102789971Y-106392735D01*
X103231206Y-106575500D01*
X103231208Y-106575500D01*
X103708792Y-106575500D01*
X103708794Y-106575500D01*
X104150029Y-106392735D01*
X104487735Y-106055029D01*
X104670500Y-105613794D01*
X104670500Y-105136206D01*
X104487735Y-104694971D01*
X104150029Y-104357265D01*
X104133482Y-104350411D01*
X103708795Y-104174500D01*
X103708794Y-104174500D01*
X103231206Y-104174500D01*
X103231204Y-104174500D01*
X102789970Y-104357265D01*
X102452265Y-104694970D01*
X102269500Y-105136204D01*
X97050499Y-105136204D01*
X96867735Y-104694971D01*
X96530029Y-104357265D01*
X96513482Y-104350411D01*
X96088795Y-104174500D01*
X96088794Y-104174500D01*
X95611206Y-104174500D01*
X95611204Y-104174500D01*
X95169970Y-104357265D01*
X94832265Y-104694970D01*
X94649500Y-105136204D01*
X83351203Y-105136204D01*
X83496540Y-104990867D01*
X83675500Y-104558821D01*
X83675500Y-104091179D01*
X83646654Y-104021540D01*
X83585955Y-103875000D01*
X83497398Y-103661204D01*
X84749500Y-103661204D01*
X84749500Y-104138795D01*
X84786493Y-104228104D01*
X84932265Y-104580029D01*
X85269971Y-104917735D01*
X85711206Y-105100500D01*
X85711208Y-105100500D01*
X86188792Y-105100500D01*
X86188794Y-105100500D01*
X86619752Y-104921992D01*
X87781559Y-104921992D01*
X88211302Y-105099999D01*
X88211306Y-105100000D01*
X88688694Y-105100000D01*
X88688697Y-105099999D01*
X88907345Y-105009432D01*
X89118439Y-104921992D01*
X88450001Y-104253554D01*
X88450000Y-104253554D01*
X87781559Y-104921992D01*
X86619752Y-104921992D01*
X86630029Y-104917735D01*
X86967735Y-104580029D01*
X87085710Y-104295210D01*
X87152817Y-104228104D01*
X87247723Y-104228104D01*
X87314831Y-104295212D01*
X87428006Y-104568439D01*
X88096446Y-103900000D01*
X88096446Y-103899999D01*
X87951472Y-103755025D01*
X88100000Y-103755025D01*
X88100000Y-104044975D01*
X88305025Y-104250000D01*
X88594975Y-104250000D01*
X88800000Y-104044975D01*
X88800000Y-103899999D01*
X88803554Y-103899999D01*
X88803554Y-103900000D01*
X89471992Y-104568439D01*
X89649999Y-104138697D01*
X89650000Y-104138693D01*
X89650000Y-103661306D01*
X89649999Y-103661302D01*
X89471992Y-103231559D01*
X88803554Y-103899999D01*
X88800000Y-103899999D01*
X88800000Y-103755025D01*
X88594975Y-103550000D01*
X88305025Y-103550000D01*
X88100000Y-103755025D01*
X87951472Y-103755025D01*
X87428006Y-103231559D01*
X87314831Y-103504787D01*
X87247723Y-103571895D01*
X87152817Y-103571895D01*
X87085709Y-103504787D01*
X87039296Y-103392735D01*
X86967735Y-103219971D01*
X86630029Y-102882265D01*
X86619747Y-102878006D01*
X87781559Y-102878006D01*
X88450000Y-103546446D01*
X88450001Y-103546446D01*
X89118439Y-102878006D01*
X88750934Y-102725780D01*
X88688697Y-102700000D01*
X88211303Y-102700000D01*
X87781559Y-102878006D01*
X86619747Y-102878006D01*
X86577336Y-102860439D01*
X86188795Y-102699500D01*
X86188794Y-102699500D01*
X85711206Y-102699500D01*
X85711204Y-102699500D01*
X85269970Y-102882265D01*
X84932265Y-103219970D01*
X84749500Y-103661204D01*
X83497398Y-103661204D01*
X83496540Y-103659133D01*
X83382377Y-103544970D01*
X83249735Y-103412327D01*
X83213416Y-103324646D01*
X83249735Y-103236965D01*
X83496116Y-102990584D01*
X83647546Y-102625000D01*
X94654683Y-102625000D01*
X94832689Y-103054745D01*
X95170254Y-103392310D01*
X95599999Y-103570316D01*
X95600000Y-103570316D01*
X96100000Y-103570316D01*
X96529745Y-103392310D01*
X96867310Y-103054745D01*
X97045317Y-102625000D01*
X96100000Y-102625000D01*
X96100000Y-103570316D01*
X95600000Y-103570316D01*
X95600000Y-102625000D01*
X94654683Y-102625000D01*
X83647546Y-102625000D01*
X83668257Y-102575000D01*
X82815685Y-102575000D01*
X82900000Y-102490685D01*
X82900000Y-102159315D01*
X82815685Y-102075000D01*
X83668256Y-102075000D01*
X83496116Y-101659415D01*
X83439884Y-101603183D01*
X83403565Y-101515502D01*
X83439884Y-101427821D01*
X83458675Y-101412400D01*
X83472195Y-101403365D01*
X83535840Y-101360840D01*
X83646460Y-101195285D01*
X83675500Y-101049293D01*
X83675499Y-99600708D01*
X83646460Y-99454715D01*
X83646459Y-99454714D01*
X83646459Y-99454712D01*
X83591024Y-99371748D01*
X83535840Y-99289160D01*
X83370285Y-99178540D01*
X83370283Y-99178539D01*
X83370280Y-99178538D01*
X83224296Y-99149500D01*
X81775710Y-99149500D01*
X81629712Y-99178540D01*
X81464160Y-99289160D01*
X81353540Y-99454715D01*
X81353538Y-99454719D01*
X81324500Y-99600702D01*
X75700500Y-99600702D01*
X75700500Y-86610198D01*
X80024500Y-86610198D01*
X80024500Y-90404801D01*
X81288181Y-91668482D01*
X81324500Y-91756163D01*
X81324500Y-92158823D01*
X81503460Y-92590867D01*
X81503461Y-92590868D01*
X81749911Y-92837319D01*
X81786230Y-92925000D01*
X81749911Y-93012681D01*
X81503460Y-93259132D01*
X81324500Y-93691176D01*
X81324500Y-94158823D01*
X81450824Y-94463794D01*
X81503460Y-94590867D01*
X81834133Y-94921540D01*
X82132118Y-95044970D01*
X82266176Y-95100499D01*
X82266177Y-95100499D01*
X82266179Y-95100500D01*
X82266180Y-95100500D01*
X82733820Y-95100500D01*
X82733821Y-95100500D01*
X83165867Y-94921540D01*
X83496540Y-94590867D01*
X83675500Y-94158821D01*
X83675500Y-93691179D01*
X83669853Y-93677547D01*
X83610004Y-93533058D01*
X83496540Y-93259133D01*
X83250088Y-93012681D01*
X83213769Y-92925000D01*
X83250088Y-92837319D01*
X83348264Y-92739143D01*
X83496540Y-92590867D01*
X83675500Y-92158821D01*
X83675500Y-91691179D01*
X83496540Y-91259133D01*
X83440307Y-91202900D01*
X83403988Y-91115219D01*
X83440307Y-91027538D01*
X83459090Y-91012122D01*
X83535840Y-90960840D01*
X83646460Y-90795285D01*
X83675500Y-90649293D01*
X83675499Y-89736204D01*
X84699500Y-89736204D01*
X84699500Y-90213795D01*
X84864007Y-90610951D01*
X84882265Y-90655029D01*
X85219971Y-90992735D01*
X85410031Y-91071460D01*
X85504134Y-91110439D01*
X85571242Y-91177547D01*
X85571242Y-91272453D01*
X85504134Y-91339561D01*
X85219970Y-91457265D01*
X84882265Y-91794970D01*
X84699500Y-92236204D01*
X84699500Y-92713795D01*
X84830406Y-93029831D01*
X84882265Y-93155029D01*
X85219971Y-93492735D01*
X85661206Y-93675500D01*
X85661208Y-93675500D01*
X86138792Y-93675500D01*
X86138794Y-93675500D01*
X86580029Y-93492735D01*
X86917735Y-93155029D01*
X87100500Y-92713794D01*
X87100500Y-92281162D01*
X87136819Y-92193481D01*
X88643482Y-90686819D01*
X88731163Y-90650500D01*
X92446373Y-90650500D01*
X92534054Y-90686819D01*
X92692736Y-90845500D01*
X92839971Y-90992735D01*
X93030031Y-91071460D01*
X93124134Y-91110439D01*
X93191242Y-91177547D01*
X93191242Y-91272453D01*
X93124134Y-91339561D01*
X92839970Y-91457265D01*
X92502265Y-91794970D01*
X92319500Y-92236204D01*
X92319500Y-92713795D01*
X92450406Y-93029831D01*
X92502265Y-93155029D01*
X92839971Y-93492735D01*
X93281206Y-93675500D01*
X93281208Y-93675500D01*
X93758792Y-93675500D01*
X93758794Y-93675500D01*
X94200029Y-93492735D01*
X94537735Y-93155029D01*
X94595439Y-93015717D01*
X94662547Y-92948610D01*
X94757453Y-92948610D01*
X94824560Y-93015717D01*
X94882265Y-93155029D01*
X95219971Y-93492735D01*
X95441055Y-93584310D01*
X95504134Y-93610439D01*
X95571242Y-93677547D01*
X95571242Y-93772453D01*
X95504134Y-93839561D01*
X95219970Y-93957265D01*
X94882265Y-94294970D01*
X94699500Y-94736204D01*
X94699500Y-95213795D01*
X94882265Y-95655029D01*
X94990055Y-95762819D01*
X95026374Y-95850500D01*
X94990055Y-95938181D01*
X94902374Y-95974500D01*
X94178091Y-95974500D01*
X94090410Y-95938181D01*
X94054091Y-95850500D01*
X94063530Y-95803047D01*
X94080193Y-95762819D01*
X94100500Y-95713794D01*
X94100500Y-95236206D01*
X93917735Y-94794971D01*
X93580029Y-94457265D01*
X93547000Y-94443584D01*
X93138795Y-94274500D01*
X93138794Y-94274500D01*
X92661206Y-94274500D01*
X92661204Y-94274500D01*
X92219970Y-94457265D01*
X91882265Y-94794970D01*
X91764561Y-95079134D01*
X91697453Y-95146242D01*
X91602547Y-95146242D01*
X91535439Y-95079134D01*
X91470161Y-94921539D01*
X91417735Y-94794971D01*
X91080029Y-94457265D01*
X91047000Y-94443584D01*
X90638795Y-94274500D01*
X90638794Y-94274500D01*
X90161206Y-94274500D01*
X90161204Y-94274500D01*
X89719970Y-94457265D01*
X89382265Y-94794970D01*
X89199500Y-95236204D01*
X89199500Y-95713795D01*
X89382265Y-96155029D01*
X89570253Y-96343017D01*
X89606572Y-96430698D01*
X89570253Y-96518379D01*
X86150452Y-99938181D01*
X86062771Y-99974500D01*
X85736204Y-99974500D01*
X85294970Y-100157265D01*
X84957265Y-100494970D01*
X84774500Y-100936204D01*
X84774500Y-101413795D01*
X84890967Y-101694971D01*
X84957265Y-101855029D01*
X85294971Y-102192735D01*
X85736206Y-102375500D01*
X85736208Y-102375500D01*
X86213792Y-102375500D01*
X86213794Y-102375500D01*
X86644752Y-102196992D01*
X87806559Y-102196992D01*
X88236302Y-102374999D01*
X88236306Y-102375000D01*
X88713694Y-102375000D01*
X88713697Y-102374999D01*
X89143439Y-102196992D01*
X89071446Y-102124999D01*
X94654683Y-102124999D01*
X94654683Y-102125000D01*
X95605025Y-102125000D01*
X95500000Y-102230025D01*
X95500000Y-102519975D01*
X95705025Y-102725000D01*
X95994975Y-102725000D01*
X96200000Y-102519975D01*
X96200000Y-102230025D01*
X96094975Y-102125000D01*
X97045317Y-102125000D01*
X97045316Y-102124999D01*
X96867310Y-101695254D01*
X96529745Y-101357689D01*
X96299913Y-101262489D01*
X96232805Y-101195380D01*
X96232805Y-101100475D01*
X96299913Y-101033367D01*
X96508439Y-100946992D01*
X95840001Y-100278554D01*
X95840000Y-100278554D01*
X95171559Y-100946992D01*
X95390086Y-101037510D01*
X95457194Y-101104618D01*
X95457194Y-101199524D01*
X95390086Y-101266632D01*
X95170254Y-101357689D01*
X94832689Y-101695254D01*
X94654683Y-102124999D01*
X89071446Y-102124999D01*
X88475001Y-101528554D01*
X88475000Y-101528554D01*
X87806559Y-102196992D01*
X86644752Y-102196992D01*
X86655029Y-102192735D01*
X86992735Y-101855029D01*
X87110710Y-101570210D01*
X87177817Y-101503104D01*
X87272723Y-101503104D01*
X87339831Y-101570212D01*
X87453006Y-101843439D01*
X88125000Y-101171445D01*
X88125000Y-101319975D01*
X88330025Y-101525000D01*
X88619975Y-101525000D01*
X88825000Y-101319975D01*
X88825000Y-101174999D01*
X88828554Y-101174999D01*
X88828554Y-101175000D01*
X89496992Y-101843439D01*
X89674999Y-101413697D01*
X89675000Y-101413693D01*
X89675000Y-100936306D01*
X89674999Y-100936302D01*
X89496992Y-100506559D01*
X88828554Y-101174999D01*
X88825000Y-101174999D01*
X88825000Y-101030025D01*
X88619975Y-100825000D01*
X88471446Y-100825000D01*
X89143439Y-100153006D01*
X88713697Y-99975000D01*
X88535729Y-99975000D01*
X88448048Y-99938681D01*
X88411729Y-99851000D01*
X88448048Y-99763319D01*
X89032828Y-99178540D01*
X90699549Y-97511819D01*
X90787230Y-97475500D01*
X99276000Y-97475500D01*
X99363681Y-97511819D01*
X99400000Y-97599500D01*
X99400000Y-97663696D01*
X99478432Y-97853047D01*
X99478432Y-97947953D01*
X99411324Y-98015061D01*
X99363871Y-98024500D01*
X94327000Y-98024500D01*
X93799500Y-98552000D01*
X93799500Y-99297999D01*
X94327001Y-99825500D01*
X94516000Y-99825500D01*
X94603681Y-99861819D01*
X94640000Y-99949500D01*
X94640000Y-100163697D01*
X94818006Y-100593439D01*
X95490000Y-99921445D01*
X95490000Y-100069975D01*
X95695025Y-100275000D01*
X95984975Y-100275000D01*
X96190000Y-100069975D01*
X96190000Y-99921447D01*
X96861992Y-100593439D01*
X97039999Y-100163697D01*
X97040000Y-100163693D01*
X97040000Y-99686306D01*
X97037617Y-99674325D01*
X97044410Y-99672973D01*
X97044413Y-99602043D01*
X97111523Y-99534937D01*
X97158972Y-99525500D01*
X102140487Y-99525500D01*
X102228168Y-99561819D01*
X102264487Y-99649500D01*
X102259665Y-99673785D01*
X102261883Y-99674227D01*
X102259500Y-99686207D01*
X102259500Y-100163795D01*
X102413258Y-100535000D01*
X102442265Y-100605029D01*
X102779971Y-100942735D01*
X103008779Y-101037510D01*
X103075887Y-101104618D01*
X103075887Y-101199524D01*
X103008779Y-101266632D01*
X102789970Y-101357265D01*
X102452265Y-101694970D01*
X102269500Y-102136204D01*
X102269500Y-102613795D01*
X102440882Y-103027547D01*
X102452265Y-103055029D01*
X102789971Y-103392735D01*
X103231206Y-103575500D01*
X103231208Y-103575500D01*
X103708792Y-103575500D01*
X103708794Y-103575500D01*
X104150029Y-103392735D01*
X104487735Y-103055029D01*
X104670500Y-102613794D01*
X104670500Y-102136206D01*
X104487735Y-101694971D01*
X104150029Y-101357265D01*
X104060003Y-101319975D01*
X103921220Y-101262489D01*
X103854112Y-101195380D01*
X103854112Y-101100475D01*
X103921219Y-101033368D01*
X104140029Y-100942735D01*
X104477735Y-100605029D01*
X104660500Y-100163794D01*
X104660500Y-99686206D01*
X104660499Y-99686205D01*
X104658117Y-99674227D01*
X104664935Y-99672870D01*
X104664936Y-99672249D01*
X104655513Y-99649500D01*
X104664967Y-99626674D01*
X104664985Y-99601968D01*
X104682409Y-99584567D01*
X104691832Y-99561819D01*
X104714656Y-99552364D01*
X104732139Y-99534906D01*
X104779513Y-99525500D01*
X104791366Y-99525500D01*
X104997398Y-99525500D01*
X105085079Y-99561819D01*
X105111958Y-99602046D01*
X105277490Y-100001674D01*
X105643326Y-100367510D01*
X105771108Y-100420439D01*
X105838216Y-100487548D01*
X105838216Y-100582453D01*
X105771108Y-100649560D01*
X105741077Y-100662000D01*
X105643325Y-100702490D01*
X105277490Y-101068325D01*
X105079500Y-101546312D01*
X105079500Y-102063687D01*
X105244902Y-102463000D01*
X105277490Y-102541674D01*
X105643326Y-102907510D01*
X105771108Y-102960439D01*
X105838216Y-103027548D01*
X105838216Y-103122453D01*
X105771108Y-103189560D01*
X105728366Y-103207265D01*
X105643325Y-103242490D01*
X105277490Y-103608325D01*
X105079500Y-104086312D01*
X105079500Y-104603687D01*
X105209584Y-104917735D01*
X105277490Y-105081674D01*
X105643326Y-105447510D01*
X105829196Y-105524500D01*
X106121312Y-105645499D01*
X106121313Y-105645499D01*
X106121315Y-105645500D01*
X106121316Y-105645500D01*
X107438684Y-105645500D01*
X107438685Y-105645500D01*
X107916674Y-105447510D01*
X108282510Y-105081674D01*
X108480500Y-104603685D01*
X108480500Y-104086315D01*
X108463376Y-104044975D01*
X108320312Y-103699588D01*
X108282510Y-103608326D01*
X107916674Y-103242490D01*
X107788890Y-103189560D01*
X107721783Y-103122453D01*
X107721783Y-103027547D01*
X107788890Y-102960439D01*
X107916674Y-102907510D01*
X108282510Y-102541674D01*
X108480500Y-102063685D01*
X108480500Y-101546315D01*
X108474223Y-101531162D01*
X108422508Y-101406311D01*
X108282510Y-101068326D01*
X107916674Y-100702490D01*
X107788890Y-100649560D01*
X107721783Y-100582453D01*
X107721783Y-100487547D01*
X107788890Y-100420439D01*
X107916674Y-100367510D01*
X108282510Y-100001674D01*
X108480500Y-99523685D01*
X108480500Y-99006315D01*
X108435201Y-98896953D01*
X108435201Y-98802047D01*
X108502309Y-98734939D01*
X108549762Y-98725500D01*
X112630238Y-98725500D01*
X112717919Y-98761819D01*
X112754238Y-98849500D01*
X112744799Y-98896953D01*
X112699500Y-99006312D01*
X112699500Y-99523687D01*
X112839560Y-99861819D01*
X112897490Y-100001674D01*
X113263326Y-100367510D01*
X113391108Y-100420439D01*
X113458216Y-100487548D01*
X113458216Y-100582453D01*
X113391108Y-100649560D01*
X113361077Y-100662000D01*
X113263325Y-100702490D01*
X112897490Y-101068325D01*
X112699500Y-101546312D01*
X112699500Y-102063687D01*
X112864902Y-102463000D01*
X112897490Y-102541674D01*
X113263326Y-102907510D01*
X113391108Y-102960439D01*
X113458216Y-103027548D01*
X113458216Y-103122453D01*
X113391108Y-103189560D01*
X113348366Y-103207265D01*
X113263325Y-103242490D01*
X112897490Y-103608325D01*
X112699500Y-104086312D01*
X112699500Y-104603687D01*
X112829584Y-104917735D01*
X112897490Y-105081674D01*
X113263326Y-105447510D01*
X113449196Y-105524500D01*
X113741312Y-105645499D01*
X113741313Y-105645499D01*
X113741315Y-105645500D01*
X113741316Y-105645500D01*
X115058684Y-105645500D01*
X115058685Y-105645500D01*
X115536674Y-105447510D01*
X115902510Y-105081674D01*
X116100500Y-104603685D01*
X116100500Y-104086315D01*
X116083376Y-104044975D01*
X115940312Y-103699588D01*
X115902510Y-103608326D01*
X115536674Y-103242490D01*
X115408890Y-103189560D01*
X115341783Y-103122453D01*
X115341783Y-103027547D01*
X115408890Y-102960439D01*
X115536674Y-102907510D01*
X115902510Y-102541674D01*
X116100500Y-102063685D01*
X116100500Y-101546315D01*
X116094223Y-101531162D01*
X116042508Y-101406311D01*
X115902510Y-101068326D01*
X115536674Y-100702490D01*
X115408890Y-100649560D01*
X115341783Y-100582453D01*
X115341783Y-100487547D01*
X115408890Y-100420439D01*
X115536674Y-100367510D01*
X115902510Y-100001674D01*
X115902512Y-100001667D01*
X115906561Y-99995610D01*
X115985472Y-99942883D01*
X116009664Y-99940500D01*
X116556374Y-99940500D01*
X116644055Y-99976819D01*
X116909971Y-100242735D01*
X117131055Y-100334310D01*
X117194134Y-100360439D01*
X117261242Y-100427547D01*
X117261242Y-100522453D01*
X117194134Y-100589561D01*
X116909970Y-100707265D01*
X116572265Y-101044970D01*
X116389500Y-101486204D01*
X116389500Y-101963795D01*
X116470487Y-102159315D01*
X116572265Y-102405029D01*
X116909971Y-102742735D01*
X117131055Y-102834310D01*
X117194134Y-102860439D01*
X117261242Y-102927547D01*
X117261242Y-103022453D01*
X117194134Y-103089561D01*
X116909970Y-103207265D01*
X116572265Y-103544970D01*
X116389500Y-103986204D01*
X116389500Y-104463795D01*
X116525107Y-104791179D01*
X116572265Y-104905029D01*
X116909971Y-105242735D01*
X117100221Y-105321539D01*
X117194134Y-105360439D01*
X117261242Y-105427547D01*
X117261242Y-105522453D01*
X117194134Y-105589561D01*
X116909970Y-105707265D01*
X116572265Y-106044970D01*
X116389500Y-106486204D01*
X116389500Y-106963795D01*
X116445089Y-107097999D01*
X116572265Y-107405029D01*
X116909971Y-107742735D01*
X117351206Y-107925500D01*
X117351208Y-107925500D01*
X117783837Y-107925500D01*
X117871518Y-107961819D01*
X118385199Y-108475500D01*
X118958059Y-108475500D01*
X119045740Y-108511819D01*
X119082059Y-108599500D01*
X119045740Y-108687181D01*
X119026950Y-108702602D01*
X119019970Y-108707265D01*
X118682265Y-109044970D01*
X118564561Y-109329134D01*
X118497453Y-109396242D01*
X118402547Y-109396242D01*
X118335439Y-109329134D01*
X118309310Y-109266055D01*
X118217735Y-109044971D01*
X117880029Y-108707265D01*
X117869747Y-108703006D01*
X117438795Y-108524500D01*
X117438794Y-108524500D01*
X116961206Y-108524500D01*
X116961204Y-108524500D01*
X116519970Y-108707265D01*
X116182265Y-109044970D01*
X115999500Y-109486204D01*
X115999500Y-109963795D01*
X116177464Y-110393439D01*
X116182265Y-110405029D01*
X116519971Y-110742735D01*
X116961206Y-110925500D01*
X116961208Y-110925500D01*
X117438792Y-110925500D01*
X117438794Y-110925500D01*
X117880029Y-110742735D01*
X118217735Y-110405029D01*
X118335439Y-110120864D01*
X118402547Y-110053757D01*
X118497453Y-110053757D01*
X118564560Y-110120864D01*
X118682265Y-110405029D01*
X119019971Y-110742735D01*
X119461206Y-110925500D01*
X119461208Y-110925500D01*
X119938792Y-110925500D01*
X119938794Y-110925500D01*
X120380029Y-110742735D01*
X120717735Y-110405029D01*
X120900500Y-109963794D01*
X120900500Y-109486206D01*
X120717735Y-109044971D01*
X120380029Y-108707265D01*
X120373050Y-108702602D01*
X120320324Y-108623691D01*
X120338839Y-108530609D01*
X120417750Y-108477883D01*
X120441941Y-108475500D01*
X121958059Y-108475500D01*
X122045740Y-108511819D01*
X122082059Y-108599500D01*
X122045740Y-108687181D01*
X122026950Y-108702602D01*
X122019970Y-108707265D01*
X121682265Y-109044970D01*
X121499500Y-109486204D01*
X121499500Y-109963795D01*
X121677464Y-110393439D01*
X121682265Y-110405029D01*
X122019971Y-110742735D01*
X122461206Y-110925500D01*
X122461208Y-110925500D01*
X122938792Y-110925500D01*
X122938794Y-110925500D01*
X123369752Y-110746992D01*
X124531559Y-110746992D01*
X124961302Y-110924999D01*
X124961306Y-110925000D01*
X125438694Y-110925000D01*
X125438697Y-110924999D01*
X125868439Y-110746992D01*
X125200001Y-110078554D01*
X125200000Y-110078554D01*
X124531559Y-110746992D01*
X123369752Y-110746992D01*
X123380029Y-110742735D01*
X123717735Y-110405029D01*
X123835710Y-110120210D01*
X123902817Y-110053104D01*
X123997723Y-110053104D01*
X124064831Y-110120212D01*
X124178006Y-110393439D01*
X124846446Y-109725000D01*
X124846446Y-109724999D01*
X124701472Y-109580025D01*
X124850000Y-109580025D01*
X124850000Y-109869975D01*
X125055025Y-110075000D01*
X125344975Y-110075000D01*
X125550000Y-109869975D01*
X125550000Y-109724999D01*
X125553554Y-109724999D01*
X125553554Y-109725001D01*
X126221992Y-110393439D01*
X126399999Y-109963697D01*
X126400000Y-109963693D01*
X126400000Y-109486306D01*
X126399999Y-109486302D01*
X126221992Y-109056559D01*
X125553554Y-109724999D01*
X125550000Y-109724999D01*
X125550000Y-109580025D01*
X125344975Y-109375000D01*
X125055025Y-109375000D01*
X124850000Y-109580025D01*
X124701472Y-109580025D01*
X124178006Y-109056559D01*
X124064831Y-109329787D01*
X123997723Y-109396895D01*
X123902817Y-109396895D01*
X123835709Y-109329787D01*
X123833519Y-109324500D01*
X123717735Y-109044971D01*
X123380029Y-108707265D01*
X123373050Y-108702602D01*
X123320324Y-108623691D01*
X123338839Y-108530609D01*
X123417750Y-108477883D01*
X123441941Y-108475500D01*
X124457418Y-108475500D01*
X124545099Y-108511819D01*
X124581418Y-108599500D01*
X124545099Y-108687181D01*
X124533114Y-108695189D01*
X124531559Y-108703006D01*
X125200000Y-109371446D01*
X125200001Y-109371446D01*
X125868439Y-108703006D01*
X125864557Y-108683490D01*
X125828020Y-108646953D01*
X125828020Y-108552047D01*
X125895128Y-108484939D01*
X125942581Y-108475500D01*
X132154801Y-108475500D01*
X134150500Y-106479801D01*
X134150500Y-105920198D01*
X134150500Y-102620199D01*
X134150500Y-102620198D01*
X132811819Y-101281517D01*
X132775500Y-101193836D01*
X132775500Y-100791180D01*
X132775499Y-100791176D01*
X132691987Y-100589561D01*
X132596540Y-100359133D01*
X132350088Y-100112681D01*
X132313769Y-100025000D01*
X132350088Y-99937319D01*
X132461907Y-99825500D01*
X132596540Y-99690867D01*
X132775500Y-99258821D01*
X132775500Y-98791179D01*
X132596540Y-98359133D01*
X132350088Y-98112681D01*
X132313769Y-98025000D01*
X132350088Y-97937319D01*
X132459899Y-97827508D01*
X132596540Y-97690867D01*
X132775500Y-97258821D01*
X132775500Y-96791179D01*
X132596540Y-96359133D01*
X132350088Y-96112681D01*
X132313769Y-96025000D01*
X132350088Y-95937319D01*
X132436907Y-95850500D01*
X132596540Y-95690867D01*
X132775500Y-95258821D01*
X132775500Y-94791179D01*
X132596540Y-94359133D01*
X132540307Y-94302900D01*
X132503988Y-94215219D01*
X132540307Y-94127538D01*
X132559090Y-94112122D01*
X132635840Y-94060840D01*
X132746460Y-93895285D01*
X132775500Y-93749293D01*
X132775499Y-92300708D01*
X132746460Y-92154715D01*
X132746459Y-92154714D01*
X132746459Y-92154712D01*
X132659453Y-92024500D01*
X132635840Y-91989160D01*
X132470285Y-91878540D01*
X132470283Y-91878539D01*
X132470281Y-91878538D01*
X132375308Y-91859647D01*
X132296398Y-91806920D01*
X132275500Y-91738030D01*
X132275500Y-91120198D01*
X132275499Y-91120197D01*
X129326713Y-88171412D01*
X129290394Y-88083731D01*
X129326713Y-87996050D01*
X129326714Y-87996049D01*
X129345422Y-87977342D01*
X129417735Y-87905029D01*
X129600500Y-87463794D01*
X129600500Y-86986206D01*
X129417735Y-86544971D01*
X129267635Y-86394871D01*
X129111819Y-86239054D01*
X129075500Y-86151373D01*
X129075500Y-79745198D01*
X129075499Y-79745197D01*
X127479801Y-78149500D01*
X126592626Y-78149500D01*
X126504945Y-78113181D01*
X126468626Y-78025500D01*
X126504945Y-77937819D01*
X126510945Y-77931819D01*
X126537735Y-77905029D01*
X126720500Y-77463794D01*
X126720500Y-76986206D01*
X126537735Y-76544971D01*
X126200029Y-76207265D01*
X126200027Y-76207264D01*
X126189874Y-76200480D01*
X126192834Y-76196049D01*
X126139787Y-76142996D01*
X126139791Y-76048091D01*
X126177350Y-76002328D01*
X126176393Y-76001371D01*
X126342325Y-75835439D01*
X126522735Y-75655029D01*
X126705500Y-75213794D01*
X126705500Y-74736206D01*
X126522735Y-74294971D01*
X126185029Y-73957265D01*
X126039283Y-73896895D01*
X125743795Y-73774500D01*
X125743794Y-73774500D01*
X125266206Y-73774500D01*
X125266204Y-73774500D01*
X124824970Y-73957265D01*
X124487265Y-74294970D01*
X124304500Y-74736204D01*
X124304500Y-75213795D01*
X124435185Y-75529297D01*
X124487265Y-75655029D01*
X124824971Y-75992735D01*
X124824973Y-75992736D01*
X124835126Y-75999520D01*
X124832163Y-76003953D01*
X124885207Y-76056990D01*
X124885213Y-76151895D01*
X124847650Y-76197672D01*
X124848607Y-76198629D01*
X124502266Y-76544969D01*
X124502265Y-76544970D01*
X124319500Y-76986204D01*
X124319500Y-77418836D01*
X124283181Y-77506517D01*
X123676518Y-78113181D01*
X123588837Y-78149500D01*
X118972626Y-78149500D01*
X118884945Y-78113181D01*
X118848626Y-78025500D01*
X118884945Y-77937819D01*
X118890945Y-77931819D01*
X118917735Y-77905029D01*
X119100500Y-77463794D01*
X119100500Y-76986206D01*
X118917735Y-76544971D01*
X118580029Y-76207265D01*
X118580027Y-76207264D01*
X118569874Y-76200480D01*
X118572834Y-76196049D01*
X118519787Y-76142996D01*
X118519791Y-76048091D01*
X118557350Y-76002328D01*
X118556393Y-76001371D01*
X118722325Y-75835439D01*
X118902735Y-75655029D01*
X119085500Y-75213794D01*
X119085500Y-74736206D01*
X118902735Y-74294971D01*
X118565029Y-73957265D01*
X118419283Y-73896895D01*
X118123795Y-73774500D01*
X118123794Y-73774500D01*
X117646206Y-73774500D01*
X117646204Y-73774500D01*
X117204970Y-73957265D01*
X116867265Y-74294970D01*
X116684500Y-74736204D01*
X116684500Y-75213795D01*
X116815185Y-75529297D01*
X116867265Y-75655029D01*
X117204971Y-75992735D01*
X117204973Y-75992736D01*
X117215126Y-75999520D01*
X117212163Y-76003953D01*
X117265207Y-76056990D01*
X117265213Y-76151895D01*
X117227650Y-76197672D01*
X117228607Y-76198629D01*
X116882266Y-76544969D01*
X116882265Y-76544970D01*
X116699500Y-76986204D01*
X116699500Y-77463795D01*
X116882265Y-77905029D01*
X116915055Y-77937819D01*
X116951374Y-78025500D01*
X116915055Y-78113181D01*
X116827374Y-78149500D01*
X116620198Y-78149500D01*
X115721518Y-79048181D01*
X115633837Y-79084500D01*
X115604664Y-79084500D01*
X115516983Y-79048181D01*
X115501561Y-79029390D01*
X115497511Y-79023329D01*
X115497510Y-79023326D01*
X115131674Y-78657490D01*
X115003890Y-78604560D01*
X114936783Y-78537453D01*
X114936783Y-78442547D01*
X115003890Y-78375439D01*
X115131674Y-78322510D01*
X115497510Y-77956674D01*
X115695500Y-77478685D01*
X115695500Y-76961315D01*
X115682994Y-76931124D01*
X115610335Y-76755710D01*
X115497510Y-76483326D01*
X115131674Y-76117490D01*
X115003890Y-76064560D01*
X114936783Y-75997453D01*
X114936783Y-75902547D01*
X115003890Y-75835439D01*
X115131674Y-75782510D01*
X115497510Y-75416674D01*
X115695500Y-74938685D01*
X115695500Y-74421315D01*
X115643166Y-74294971D01*
X115614183Y-74224999D01*
X115497510Y-73943326D01*
X115131674Y-73577490D01*
X115053845Y-73545252D01*
X114653687Y-73379500D01*
X114653685Y-73379500D01*
X113336315Y-73379500D01*
X113336312Y-73379500D01*
X112858325Y-73577490D01*
X112492490Y-73943325D01*
X112294500Y-74421312D01*
X112294500Y-74938687D01*
X112474658Y-75373624D01*
X112492490Y-75416674D01*
X112858326Y-75782510D01*
X112986108Y-75835439D01*
X113053216Y-75902548D01*
X113053216Y-75997453D01*
X112986108Y-76064560D01*
X112937924Y-76084518D01*
X112858325Y-76117490D01*
X112492490Y-76483325D01*
X112323667Y-76890896D01*
X112256558Y-76958004D01*
X112161653Y-76958004D01*
X112121425Y-76931124D01*
X111734801Y-76544500D01*
X107984664Y-76544500D01*
X107896983Y-76508181D01*
X107881561Y-76489390D01*
X107877511Y-76483329D01*
X107877510Y-76483326D01*
X107580135Y-76185951D01*
X107543816Y-76098270D01*
X107580135Y-76010589D01*
X107643622Y-75976654D01*
X107770285Y-75951460D01*
X107770286Y-75951459D01*
X107770287Y-75951459D01*
X107809138Y-75925499D01*
X107935840Y-75840840D01*
X108046460Y-75675285D01*
X108075500Y-75529293D01*
X108075499Y-73830708D01*
X108046460Y-73684715D01*
X108046459Y-73684714D01*
X108046459Y-73684712D01*
X107991024Y-73601748D01*
X107935840Y-73519160D01*
X107770285Y-73408540D01*
X107770283Y-73408539D01*
X107770280Y-73408538D01*
X107624296Y-73379500D01*
X107624293Y-73379500D01*
X106162574Y-73379500D01*
X106074893Y-73343181D01*
X106038574Y-73255500D01*
X106074893Y-73167819D01*
X108120876Y-71121838D01*
X108805895Y-70436819D01*
X108893576Y-70400500D01*
X112055487Y-70400500D01*
X112143168Y-70436819D01*
X112179487Y-70524500D01*
X112174665Y-70548785D01*
X112176883Y-70549227D01*
X112174500Y-70561207D01*
X112174500Y-71038795D01*
X112283980Y-71303104D01*
X112357265Y-71480029D01*
X112694971Y-71817735D01*
X113136206Y-72000500D01*
X113136208Y-72000500D01*
X113613792Y-72000500D01*
X113613794Y-72000500D01*
X114055029Y-71817735D01*
X114392735Y-71480029D01*
X114575500Y-71038794D01*
X114575500Y-70561206D01*
X114575499Y-70561205D01*
X114573117Y-70549227D01*
X114579935Y-70547870D01*
X114579985Y-70476968D01*
X114647139Y-70409906D01*
X114694513Y-70400500D01*
X114987771Y-70400500D01*
X115075452Y-70436819D01*
X115438181Y-70799548D01*
X115474500Y-70887229D01*
X115474500Y-71213794D01*
X115657265Y-71655029D01*
X115994971Y-71992735D01*
X116436206Y-72175500D01*
X116436208Y-72175500D01*
X116913792Y-72175500D01*
X116913794Y-72175500D01*
X117344752Y-71996992D01*
X118506559Y-71996992D01*
X118936302Y-72174999D01*
X118936306Y-72175000D01*
X119413694Y-72175000D01*
X119413697Y-72174999D01*
X119843439Y-71996992D01*
X119175001Y-71328554D01*
X119175000Y-71328554D01*
X118506559Y-71996992D01*
X117344752Y-71996992D01*
X117355029Y-71992735D01*
X117692735Y-71655029D01*
X117810710Y-71370210D01*
X117877817Y-71303104D01*
X117972723Y-71303104D01*
X118039831Y-71370212D01*
X118153006Y-71643439D01*
X118821446Y-70975000D01*
X118821446Y-70974999D01*
X118676472Y-70830025D01*
X118825000Y-70830025D01*
X118825000Y-71119975D01*
X119030025Y-71325000D01*
X119319975Y-71325000D01*
X119525000Y-71119975D01*
X119525000Y-70974999D01*
X119528554Y-70974999D01*
X119528554Y-70975001D01*
X120196992Y-71643439D01*
X120374999Y-71213697D01*
X120375000Y-71213693D01*
X120375000Y-70736306D01*
X120374999Y-70736302D01*
X120196992Y-70306559D01*
X119528554Y-70974999D01*
X119525000Y-70974999D01*
X119525000Y-70830025D01*
X119319975Y-70625000D01*
X119030025Y-70625000D01*
X118825000Y-70830025D01*
X118676472Y-70830025D01*
X118153006Y-70306559D01*
X118039831Y-70579787D01*
X117972723Y-70646895D01*
X117877817Y-70646895D01*
X117810709Y-70579787D01*
X117797489Y-70547870D01*
X117692735Y-70294971D01*
X117355029Y-69957265D01*
X117344747Y-69953006D01*
X118506559Y-69953006D01*
X119175000Y-70621446D01*
X119175001Y-70621446D01*
X119843439Y-69953006D01*
X119662748Y-69878161D01*
X137124500Y-69878161D01*
X137124500Y-71071838D01*
X137509165Y-72000500D01*
X137581299Y-72174647D01*
X138425353Y-73018701D01*
X139528163Y-73475500D01*
X139528165Y-73475500D01*
X140721835Y-73475500D01*
X140721837Y-73475500D01*
X141824647Y-73018701D01*
X142668701Y-72174647D01*
X143125500Y-71071837D01*
X143125500Y-69878163D01*
X142668701Y-68775353D01*
X141824647Y-67931299D01*
X140721838Y-67474500D01*
X140721837Y-67474500D01*
X139528163Y-67474500D01*
X139528161Y-67474500D01*
X138425352Y-67931299D01*
X137581299Y-68775352D01*
X137124500Y-69878161D01*
X119662748Y-69878161D01*
X119413697Y-69775000D01*
X118936303Y-69775000D01*
X118506559Y-69953006D01*
X117344747Y-69953006D01*
X117284773Y-69928164D01*
X116913795Y-69774500D01*
X116913794Y-69774500D01*
X116587229Y-69774500D01*
X116499548Y-69738181D01*
X115660867Y-68899500D01*
X108842213Y-68899500D01*
X108220478Y-68899500D01*
X108220477Y-68899500D01*
X106970525Y-70149452D01*
X106882844Y-70185771D01*
X106795163Y-70149452D01*
X106781407Y-70128864D01*
X106779520Y-70130126D01*
X106772736Y-70119973D01*
X106772735Y-70119971D01*
X106435029Y-69782265D01*
X106328601Y-69738181D01*
X105993795Y-69599500D01*
X105993794Y-69599500D01*
X105516206Y-69599500D01*
X105516204Y-69599500D01*
X105074970Y-69782265D01*
X104769054Y-70088181D01*
X104681373Y-70124500D01*
X101070198Y-70124500D01*
X98256517Y-72938181D01*
X98168836Y-72974500D01*
X97781163Y-72974500D01*
X97693482Y-72938181D01*
X96554801Y-71799500D01*
X92084883Y-71799500D01*
X91997202Y-71763181D01*
X91960883Y-71675500D01*
X91997202Y-71587819D01*
X93648202Y-69936819D01*
X93735883Y-69900500D01*
X93997999Y-69900500D01*
X94525500Y-69372999D01*
X94525500Y-68627001D01*
X93997999Y-68099500D01*
X93252001Y-68099500D01*
X93252000Y-68099500D01*
X92724500Y-68627000D01*
X92724500Y-68898557D01*
X92688181Y-68986238D01*
X88224500Y-73449918D01*
X88224500Y-73449919D01*
X88224500Y-74340479D01*
X88224500Y-74900081D01*
X89249919Y-75925500D01*
X94679801Y-75925500D01*
X95193481Y-75411818D01*
X95281162Y-75375500D01*
X95713792Y-75375500D01*
X95713794Y-75375500D01*
X96155029Y-75192735D01*
X96492735Y-74855029D01*
X96610439Y-74570864D01*
X96677547Y-74503757D01*
X96772453Y-74503757D01*
X96839560Y-74570864D01*
X96957265Y-74855029D01*
X97294971Y-75192735D01*
X97736206Y-75375500D01*
X97736208Y-75375500D01*
X98213792Y-75375500D01*
X98213794Y-75375500D01*
X98524041Y-75246992D01*
X100256559Y-75246992D01*
X100686302Y-75424999D01*
X100686306Y-75425000D01*
X101163694Y-75425000D01*
X101163697Y-75424999D01*
X101593439Y-75246992D01*
X100925001Y-74578554D01*
X100925000Y-74578554D01*
X100256559Y-75246992D01*
X98524041Y-75246992D01*
X98655029Y-75192735D01*
X98992735Y-74855029D01*
X99175500Y-74413794D01*
X99175500Y-73981162D01*
X99211819Y-73893481D01*
X99420588Y-73684712D01*
X99717490Y-73387810D01*
X99805169Y-73351492D01*
X99892850Y-73387811D01*
X99929169Y-73475492D01*
X99911535Y-73533629D01*
X99912363Y-73533972D01*
X99908884Y-73542369D01*
X99908276Y-73544376D01*
X99907690Y-73545252D01*
X99725000Y-73986303D01*
X99725000Y-74463697D01*
X99903006Y-74893439D01*
X100575000Y-74221445D01*
X100575000Y-74369975D01*
X100780025Y-74575000D01*
X101069975Y-74575000D01*
X101275000Y-74369975D01*
X101275000Y-74080025D01*
X101069975Y-73875000D01*
X100921445Y-73875000D01*
X101593439Y-73203006D01*
X101163697Y-73025000D01*
X100686303Y-73025000D01*
X100245256Y-73207688D01*
X100244382Y-73208273D01*
X100243351Y-73208478D01*
X100233972Y-73212363D01*
X100233199Y-73210497D01*
X100151299Y-73226786D01*
X100072389Y-73174058D01*
X100053876Y-73080975D01*
X100087812Y-73017488D01*
X101593482Y-71511819D01*
X101681163Y-71475500D01*
X104681373Y-71475500D01*
X104769054Y-71511819D01*
X105074971Y-71817735D01*
X105085129Y-71824523D01*
X105081264Y-71830305D01*
X105131361Y-71880465D01*
X105131301Y-71975370D01*
X105104451Y-72015526D01*
X104027627Y-73092350D01*
X103939946Y-73128669D01*
X103892493Y-73119230D01*
X103663795Y-73024500D01*
X103663794Y-73024500D01*
X103186206Y-73024500D01*
X103186204Y-73024500D01*
X102744970Y-73207265D01*
X102407265Y-73544970D01*
X102289290Y-73829787D01*
X102222181Y-73896895D01*
X102127276Y-73896895D01*
X102060168Y-73829787D01*
X101946992Y-73556559D01*
X101278554Y-74224999D01*
X101278554Y-74225001D01*
X101946992Y-74893439D01*
X102060168Y-74620211D01*
X102127276Y-74553103D01*
X102222182Y-74553103D01*
X102289289Y-74620210D01*
X102394101Y-74873247D01*
X102407265Y-74905029D01*
X102753607Y-75251371D01*
X102751696Y-75253281D01*
X102797117Y-75321257D01*
X102799500Y-75345449D01*
X102799500Y-76218669D01*
X102763181Y-76306350D01*
X102675500Y-76342669D01*
X102628048Y-76333230D01*
X102558690Y-76304501D01*
X102558685Y-76304500D01*
X101241315Y-76304500D01*
X101241312Y-76304500D01*
X100763325Y-76502490D01*
X100397490Y-76868325D01*
X100199500Y-77346312D01*
X100199500Y-77863687D01*
X100332234Y-78184133D01*
X100397490Y-78341674D01*
X100763326Y-78707510D01*
X100891108Y-78760439D01*
X100958216Y-78827548D01*
X100958216Y-78922453D01*
X100891108Y-78989560D01*
X100881603Y-78993498D01*
X100763325Y-79042490D01*
X100397490Y-79408325D01*
X100199500Y-79886312D01*
X100199500Y-80403687D01*
X100322031Y-80699500D01*
X100397490Y-80881674D01*
X100763326Y-81247510D01*
X100891108Y-81300439D01*
X100958216Y-81367548D01*
X100958216Y-81462453D01*
X100891108Y-81529560D01*
X100842924Y-81549518D01*
X100763325Y-81582490D01*
X100397490Y-81948325D01*
X100199500Y-82426312D01*
X100199500Y-82943683D01*
X100199501Y-82943690D01*
X100228230Y-83013048D01*
X100228230Y-83107953D01*
X100161121Y-83175061D01*
X100113669Y-83184500D01*
X96066331Y-83184500D01*
X95978650Y-83148181D01*
X95942331Y-83060500D01*
X95951770Y-83013048D01*
X95980498Y-82943690D01*
X95980498Y-82943689D01*
X95980500Y-82943685D01*
X95980500Y-82426315D01*
X95782510Y-81948326D01*
X95416674Y-81582490D01*
X95288890Y-81529560D01*
X95221783Y-81462453D01*
X95221783Y-81367547D01*
X95288890Y-81300439D01*
X95416674Y-81247510D01*
X95782510Y-80881674D01*
X95980500Y-80403685D01*
X95980500Y-79886315D01*
X95967994Y-79856124D01*
X95869069Y-79617298D01*
X95782510Y-79408326D01*
X95485135Y-79110951D01*
X95448816Y-79023270D01*
X95485135Y-78935589D01*
X95548622Y-78901654D01*
X95675285Y-78876460D01*
X95675286Y-78876459D01*
X95675287Y-78876459D01*
X95703066Y-78857897D01*
X95840840Y-78765840D01*
X95951460Y-78600285D01*
X95980500Y-78454293D01*
X95980499Y-76755708D01*
X95951460Y-76609715D01*
X95951459Y-76609714D01*
X95951459Y-76609712D01*
X95883617Y-76508181D01*
X95840840Y-76444160D01*
X95675285Y-76333540D01*
X95675283Y-76333539D01*
X95675280Y-76333538D01*
X95529296Y-76304500D01*
X93030710Y-76304500D01*
X92884712Y-76333540D01*
X92719160Y-76444160D01*
X92608540Y-76609715D01*
X92608538Y-76609719D01*
X92579500Y-76755702D01*
X92579500Y-78454289D01*
X92608540Y-78600287D01*
X92680185Y-78707509D01*
X92719160Y-78765840D01*
X92884715Y-78876460D01*
X92884718Y-78876460D01*
X92884719Y-78876461D01*
X92952547Y-78889952D01*
X93011373Y-78901654D01*
X93090284Y-78954380D01*
X93108799Y-79047462D01*
X93074863Y-79110952D01*
X92777492Y-79408323D01*
X92773439Y-79414390D01*
X92694528Y-79467117D01*
X92670336Y-79469500D01*
X92254500Y-79469500D01*
X92166819Y-79433181D01*
X92130500Y-79345500D01*
X92130500Y-79061207D01*
X92130499Y-79061204D01*
X92124807Y-79047462D01*
X91947735Y-78619971D01*
X91610029Y-78282265D01*
X91168795Y-78099500D01*
X91168794Y-78099500D01*
X90691206Y-78099500D01*
X90691204Y-78099500D01*
X90249970Y-78282265D01*
X89912265Y-78619970D01*
X89729500Y-79061204D01*
X89729500Y-79538795D01*
X89873448Y-79886316D01*
X89912265Y-79980029D01*
X90249971Y-80317735D01*
X90480399Y-80413181D01*
X90654845Y-80485439D01*
X90721953Y-80552547D01*
X90721953Y-80647453D01*
X90654845Y-80714561D01*
X90249970Y-80882265D01*
X89912265Y-81219970D01*
X89729500Y-81661204D01*
X89729500Y-82138795D01*
X89848595Y-82426315D01*
X89912265Y-82580029D01*
X90249971Y-82917735D01*
X90403424Y-82981297D01*
X90470532Y-83048404D01*
X90470532Y-83143309D01*
X90403424Y-83210418D01*
X90229970Y-83282265D01*
X89892265Y-83619970D01*
X89709500Y-84061204D01*
X89709500Y-84538795D01*
X89770267Y-84685500D01*
X89892265Y-84980029D01*
X90229971Y-85317735D01*
X90671206Y-85500500D01*
X90671208Y-85500500D01*
X91103837Y-85500500D01*
X91191518Y-85536819D01*
X92730198Y-87075499D01*
X92730199Y-87075500D01*
X98076639Y-87075500D01*
X98164320Y-87111819D01*
X98200639Y-87199500D01*
X98164320Y-87287181D01*
X97799500Y-87652000D01*
X97799500Y-87652001D01*
X97799500Y-88397999D01*
X98327001Y-88925500D01*
X99072999Y-88925500D01*
X99121418Y-88877081D01*
X99209099Y-88840762D01*
X99296780Y-88877081D01*
X101070198Y-90650499D01*
X101070199Y-90650500D01*
X102446373Y-90650500D01*
X102534054Y-90686819D01*
X102692736Y-90845500D01*
X102839971Y-90992735D01*
X103030031Y-91071460D01*
X103124134Y-91110439D01*
X103191242Y-91177547D01*
X103191242Y-91272453D01*
X103124134Y-91339561D01*
X102839970Y-91457265D01*
X102534054Y-91763181D01*
X102446373Y-91799500D01*
X98731163Y-91799500D01*
X98643482Y-91763181D01*
X97136819Y-90256518D01*
X97100500Y-90168837D01*
X97100500Y-89736207D01*
X97100499Y-89736204D01*
X97023164Y-89549500D01*
X96917735Y-89294971D01*
X96580029Y-88957265D01*
X96415609Y-88889160D01*
X96138795Y-88774500D01*
X96138794Y-88774500D01*
X95661206Y-88774500D01*
X95661204Y-88774500D01*
X95219970Y-88957265D01*
X94882265Y-89294970D01*
X94824561Y-89434281D01*
X94757453Y-89501389D01*
X94662547Y-89501389D01*
X94595439Y-89434281D01*
X94566196Y-89363683D01*
X94537735Y-89294971D01*
X94200029Y-88957265D01*
X94035609Y-88889160D01*
X93758795Y-88774500D01*
X93758794Y-88774500D01*
X93281206Y-88774500D01*
X93281204Y-88774500D01*
X92839970Y-88957265D01*
X92534054Y-89263181D01*
X92446373Y-89299500D01*
X88120198Y-89299500D01*
X87312181Y-90107517D01*
X87224500Y-90143836D01*
X87136819Y-90107517D01*
X87100500Y-90019836D01*
X87100500Y-89736207D01*
X87100499Y-89736204D01*
X87023164Y-89549500D01*
X86917735Y-89294971D01*
X86580029Y-88957265D01*
X86415609Y-88889160D01*
X86138795Y-88774500D01*
X86138794Y-88774500D01*
X85661206Y-88774500D01*
X85661204Y-88774500D01*
X85219970Y-88957265D01*
X84882265Y-89294970D01*
X84699500Y-89736204D01*
X83675499Y-89736204D01*
X83675499Y-89200708D01*
X83646460Y-89054715D01*
X83646459Y-89054714D01*
X83646459Y-89054712D01*
X83581346Y-88957265D01*
X83535840Y-88889160D01*
X83370285Y-88778540D01*
X83370283Y-88778539D01*
X83370280Y-88778538D01*
X83224296Y-88749500D01*
X81775710Y-88749500D01*
X81629713Y-88778540D01*
X81568390Y-88819515D01*
X81475308Y-88838029D01*
X81396397Y-88785302D01*
X81375500Y-88716412D01*
X81375500Y-88146992D01*
X87356559Y-88146992D01*
X87786302Y-88324999D01*
X87786306Y-88325000D01*
X88263694Y-88325000D01*
X88263697Y-88324999D01*
X88693439Y-88146992D01*
X88025001Y-87478554D01*
X88025000Y-87478554D01*
X87356559Y-88146992D01*
X81375500Y-88146992D01*
X81375500Y-87221163D01*
X81411819Y-87133482D01*
X81658998Y-86886303D01*
X86825000Y-86886303D01*
X86825000Y-87363697D01*
X87003006Y-87793439D01*
X87671446Y-87125000D01*
X87671446Y-87124999D01*
X87526472Y-86980025D01*
X87675000Y-86980025D01*
X87675000Y-87269975D01*
X87880025Y-87475000D01*
X88169975Y-87475000D01*
X88375000Y-87269975D01*
X88375000Y-87124999D01*
X88378554Y-87124999D01*
X88378554Y-87125001D01*
X89046992Y-87793439D01*
X89160168Y-87520211D01*
X89227276Y-87453103D01*
X89322182Y-87453103D01*
X89389289Y-87520210D01*
X89507265Y-87805029D01*
X89844971Y-88142735D01*
X90286206Y-88325500D01*
X90286208Y-88325500D01*
X90763792Y-88325500D01*
X90763794Y-88325500D01*
X91205029Y-88142735D01*
X91542735Y-87805029D01*
X91725500Y-87363794D01*
X91725500Y-86886206D01*
X91542735Y-86444971D01*
X91205029Y-86107265D01*
X91194747Y-86103006D01*
X90763795Y-85924500D01*
X90763794Y-85924500D01*
X90286206Y-85924500D01*
X90286204Y-85924500D01*
X89844970Y-86107265D01*
X89507265Y-86444970D01*
X89389290Y-86729787D01*
X89322181Y-86796895D01*
X89227276Y-86796895D01*
X89160168Y-86729787D01*
X89046992Y-86456559D01*
X88378554Y-87124999D01*
X88375000Y-87124999D01*
X88375000Y-86980025D01*
X88169975Y-86775000D01*
X87880025Y-86775000D01*
X87675000Y-86980025D01*
X87526472Y-86980025D01*
X87003006Y-86456559D01*
X86825000Y-86886303D01*
X81658998Y-86886303D01*
X82442295Y-86103006D01*
X87356559Y-86103006D01*
X88025000Y-86771446D01*
X88025001Y-86771446D01*
X88693439Y-86103006D01*
X88263697Y-85925000D01*
X87786303Y-85925000D01*
X87356559Y-86103006D01*
X82442295Y-86103006D01*
X83008482Y-85536819D01*
X83096163Y-85500500D01*
X83528792Y-85500500D01*
X83528794Y-85500500D01*
X83970029Y-85317735D01*
X84307735Y-84980029D01*
X84490500Y-84538794D01*
X84490500Y-84061206D01*
X84307735Y-83619971D01*
X83970029Y-83282265D01*
X83816574Y-83218702D01*
X83749467Y-83151595D01*
X83749467Y-83056689D01*
X83816573Y-82989582D01*
X83990029Y-82917735D01*
X84327735Y-82580029D01*
X84510500Y-82138794D01*
X84510500Y-81661206D01*
X84327735Y-81219971D01*
X83990029Y-80882265D01*
X83585153Y-80714560D01*
X83518046Y-80647453D01*
X83518046Y-80552547D01*
X83585153Y-80485439D01*
X83990029Y-80317735D01*
X84327735Y-79980029D01*
X84510500Y-79538794D01*
X84510500Y-79061206D01*
X84327735Y-78619971D01*
X83990029Y-78282265D01*
X83548795Y-78099500D01*
X83548794Y-78099500D01*
X83071206Y-78099500D01*
X83071204Y-78099500D01*
X82629970Y-78282265D01*
X82292265Y-78619970D01*
X82109500Y-79061204D01*
X82109500Y-79538795D01*
X82253448Y-79886316D01*
X82292265Y-79980029D01*
X82629971Y-80317735D01*
X82860399Y-80413181D01*
X83034845Y-80485439D01*
X83101953Y-80552547D01*
X83101953Y-80647453D01*
X83034845Y-80714561D01*
X82629970Y-80882265D01*
X82292265Y-81219970D01*
X82109500Y-81661204D01*
X82109500Y-82138795D01*
X82228595Y-82426315D01*
X82292265Y-82580029D01*
X82629971Y-82917735D01*
X82783424Y-82981297D01*
X82850532Y-83048404D01*
X82850532Y-83143309D01*
X82783424Y-83210418D01*
X82609970Y-83282265D01*
X82272265Y-83619970D01*
X82089500Y-84061204D01*
X82089500Y-84493835D01*
X82053181Y-84581516D01*
X80420199Y-86214500D01*
X80024500Y-86610198D01*
X75700500Y-86610198D01*
X75700500Y-69928161D01*
X77699500Y-69928161D01*
X77699500Y-71121838D01*
X77920355Y-71655029D01*
X78156299Y-72224647D01*
X79000353Y-73068701D01*
X80103163Y-73525500D01*
X80103165Y-73525500D01*
X81296835Y-73525500D01*
X81296837Y-73525500D01*
X82399647Y-73068701D01*
X83243701Y-72224647D01*
X83700500Y-71121837D01*
X83700500Y-69928163D01*
X83243701Y-68825353D01*
X82399647Y-67981299D01*
X82278936Y-67931299D01*
X81296838Y-67524500D01*
X81296837Y-67524500D01*
X80103163Y-67524500D01*
X80103161Y-67524500D01*
X79000352Y-67981299D01*
X78156299Y-68825352D01*
X77699500Y-69928161D01*
X75700500Y-69928161D01*
X75700500Y-66249500D01*
X75736819Y-66161819D01*
X75824500Y-66125500D01*
X145450500Y-66125500D01*
X145538181Y-66161819D01*
G37*
%TD.AperFunction*%
%TD*%
M02*
